<?xml version="1.0" standalone="no"?>
<!DOCTYPE svg PUBLIC "-//W3C//DTD SVG 20010904//EN"
 "http://www.w3.org/TR/2001/REC-SVG-20010904/DTD/svg10.dtd">
<svg version="1.0" xmlns="http://www.w3.org/2000/svg"
 width="500.000000pt" height="500.000000pt" viewBox="0 0 500.000000 500.000000"
 preserveAspectRatio="xMidYMid meet">
<metadata>
Created by potrace 1.11, written by Peter Selinger 2001-2013
</metadata>
<g transform="translate(0.000000,500.000000) scale(0.100000,-0.100000)"
fill="#000000" stroke="none">
<path d="M0 2495 l0 -1355 2500 0 2500 0 0 1355 0 1355 -781 0 c-517 0 -778
-3 -774 -10 3 -5 1 -10 -4 -10 -6 0 -11 5 -11 10 0 6 -24 10 -59 8 -54 -2 -58
-4 -58 -25 0 -22 1 -23 17 -8 9 8 20 15 25 15 5 0 0 -7 -11 -16 -18 -14 -18
-15 6 -9 17 4 21 3 11 -3 -7 -5 -9 -12 -5 -14 5 -3 2 -3 -6 0 -32 10 -65 7
-63 -5 2 -7 -2 -13 -8 -13 -6 0 -9 7 -5 15 3 8 1 15 -4 15 -6 0 -10 7 -10 15
0 8 5 15 10 15 6 0 10 -7 10 -15 0 -13 3 -13 13 -3 10 9 11 16 3 24 -14 15
-28 13 -43 -6 -6 -8 -15 -11 -19 -7 -5 4 -2 12 6 17 11 7 5 9 -20 9 -19 -1
-27 -3 -17 -6 9 -2 17 -9 17 -15 0 -5 -7 -7 -16 -4 -9 3 -20 6 -25 6 -6 0 -7
5 -4 10 3 6 1 10 -4 10 -6 0 -11 -10 -12 -22 l0 -23 -9 22 c-7 16 -17 22 -33
21 l-24 -2 30 -30 c16 -17 25 -32 18 -34 -6 -2 -11 -10 -11 -18 0 -16 -45 -47
-74 -50 -12 -2 -15 0 -8 2 6 3 9 11 5 17 -4 8 -1 8 9 -1 12 -10 18 -9 28 3 9
11 9 15 1 15 -7 0 -9 5 -5 13 6 8 3 8 -9 -1 -9 -8 -21 -11 -27 -7 -5 3 -10 1
-10 -6 0 -10 -3 -10 -11 -2 -9 9 -8 18 5 37 9 15 12 26 6 26 -6 0 -8 6 -4 13
6 8 3 8 -9 -1 -9 -8 -21 -11 -27 -7 -6 4 -23 -5 -37 -19 -26 -26 -50 -36 -38
-15 4 6 0 9 -11 7 -16 -2 -19 3 -17 30 l1 33 -80 -2 c-45 -1 -74 -5 -67 -10 7
-4 17 -5 21 -3 4 3 5 -3 1 -12 -5 -13 -3 -16 10 -11 9 3 17 2 17 -3 0 -6 -11
-10 -25 -10 -14 0 -24 -5 -23 -10 4 -15 -80 -60 -118 -62 -15 -2 -19 -7 -16
-23 3 -17 9 -20 36 -17 20 2 37 -2 45 -12 7 -8 19 -12 26 -10 18 7 8 -33 -16
-65 -11 -13 -17 -27 -14 -31 2 -4 -4 -15 -15 -25 -16 -14 -18 -21 -8 -28 9 -6
7 -7 -6 -3 -10 4 -26 1 -34 -6 -12 -10 -14 -10 -8 0 5 8 0 12 -13 12 -20 0
-20 -1 -4 -19 9 -11 20 -18 25 -15 15 10 8 -9 -9 -23 -10 -8 -12 -12 -5 -8 15
8 16 -7 1 -22 -6 -6 -13 -26 -15 -45 -3 -22 -1 -28 5 -19 5 8 7 20 5 26 -3 7
1 15 9 18 8 3 18 24 22 46 6 39 7 39 43 35 20 -2 51 -7 67 -10 17 -3 37 -5 45
-6 8 0 20 -5 27 -10 7 -5 14 -5 18 2 3 5 4 11 1 11 -3 1 -10 3 -16 4 -5 1 -22
3 -36 4 -19 1 -25 5 -20 16 4 13 2 14 -14 5 -24 -13 -76 -2 -61 13 7 7 15 6
24 -2 12 -9 16 -8 20 4 4 8 3 14 -1 12 -4 -1 -8 3 -9 8 -2 6 2 11 7 11 6 1 15
2 20 3 6 0 10 7 9 14 -3 26 2 37 16 37 8 0 19 9 25 20 6 11 18 20 28 20 15 0
15 -2 2 -10 -20 -13 -8 -13 25 0 19 7 25 15 21 28 -7 24 37 54 81 54 49 0 106
-28 127 -63 9 -16 13 -29 7 -29 -5 0 -11 6 -14 13 -3 6 -4 2 -4 -10 1 -24 12
-30 22 -13 4 6 15 8 25 5 13 -4 19 1 22 20 3 14 2 28 -3 31 -4 2 -5 12 -2 22
4 13 2 13 -10 -3 -13 -16 -18 -18 -28 -7 -11 10 -11 12 0 12 15 0 41 25 41 39
0 6 18 11 40 11 22 0 40 -5 40 -11 0 -5 5 -7 10 -4 6 4 8 11 5 16 -4 5 -1 9 4
9 6 0 11 -4 11 -9 0 -5 3 -16 6 -24 4 -12 0 -14 -18 -11 -13 2 -16 1 -8 -2 8
-4 22 -17 32 -28 10 -12 17 -15 18 -8 0 6 -4 12 -10 12 -5 0 -10 5 -10 11 0 7
7 8 18 4 9 -4 24 -7 32 -8 8 0 24 -7 34 -16 14 -11 17 -12 11 -2 -8 14 -8 14
39 -5 7 -3 20 1 27 8 18 17 51 17 56 1 3 -7 0 -13 -5 -13 -6 0 -12 4 -14 10
-2 6 -9 6 -18 0 -19 -12 -7 -22 24 -22 14 0 23 -4 20 -9 -3 -5 3 -9 13 -10 10
0 3 -5 -14 -10 -18 -5 -33 -16 -33 -24 0 -19 14 -19 30 0 15 18 36 20 46 4 4
-8 -1 -9 -16 -4 -15 5 -20 4 -16 -4 4 -6 14 -11 23 -11 9 0 13 -3 10 -7 -8 -7
21 -43 36 -43 5 0 3 7 -4 17 -12 14 -12 16 1 11 8 -2 16 -14 18 -26 2 -12 8
-22 14 -22 6 0 8 -9 5 -19 -3 -14 -1 -18 9 -14 18 7 18 29 1 40 -7 4 -20 23
-29 41 -11 25 -17 30 -21 18 -10 -25 -25 -18 -19 9 3 16 10 24 22 22 28 -4 53
-35 47 -58 -5 -20 -5 -20 15 -2 20 18 21 18 14 -4 -4 -13 -2 -24 5 -29 7 -4 9
-3 6 3 -4 6 0 14 9 17 23 9 31 7 14 -4 -12 -7 -9 -13 13 -30 15 -12 25 -26 22
-31 -10 -16 -22 -10 -28 13 -8 31 -16 19 -10 -14 4 -23 8 -26 23 -18 24 13 30
13 30 0 0 -5 -3 -9 -7 -9 -18 3 -31 -2 -53 -21 -12 -11 -27 -17 -31 -14 -5 3
-9 0 -9 -6 0 -8 7 -9 18 -5 33 14 60 17 66 6 4 -6 1 -9 -7 -5 -15 5 -52 -24
-42 -34 3 -3 11 3 19 13 7 10 16 14 19 8 3 -5 -7 -17 -23 -26 -28 -17 -29 -17
-24 6 3 19 0 23 -18 22 -12 -1 -24 -7 -26 -13 -2 -7 3 -10 12 -6 9 4 16 1 16
-6 0 -8 -10 -10 -27 -7 -24 4 -26 4 -10 -8 15 -10 11 -12 -23 -9 -22 1 -40 -2
-40 -7 0 -6 9 -7 20 -4 11 4 20 2 20 -4 0 -6 7 -8 16 -4 9 3 4 -7 -12 -22 -23
-24 -30 -26 -47 -16 -10 7 -16 8 -13 2 11 -17 65 -40 72 -30 3 5 0 9 -5 9 -6
0 -11 5 -11 11 0 8 5 8 15 -1 8 -7 15 -9 15 -4 0 10 20 -17 20 -28 0 -4 -12
-5 -27 -4 -16 2 -28 5 -28 6 0 1 -16 3 -35 5 -19 1 -29 0 -22 -2 6 -3 12 -9
12 -15 0 -6 -12 -2 -27 7 l-28 18 24 -27 c23 -24 26 -25 43 -9 15 13 21 14 31
4 9 -10 8 -11 -5 -6 -10 4 -18 4 -18 1 0 -4 12 -11 26 -17 15 -5 24 -12 21
-16 -4 -3 -18 2 -33 12 l-27 17 7 -32 c5 -28 4 -31 -9 -20 -8 7 -12 16 -10 21
3 4 -4 13 -15 19 -16 8 -20 8 -18 -2 2 -7 -3 -12 -9 -11 -7 2 -13 -2 -13 -8 0
-6 7 -9 15 -6 22 9 26 -8 4 -21 -15 -10 -19 -10 -19 0 0 9 -3 9 -12 -1 -11
-10 -9 -15 6 -27 11 -7 17 -16 14 -19 -2 -3 -13 4 -23 15 -10 11 -23 20 -29
20 -6 0 -5 -5 2 -12 20 -20 14 -28 -25 -29 -30 0 -34 -2 -18 -8 11 -5 23 -7
27 -5 3 2 4 -6 0 -18 -4 -18 -2 -20 14 -14 16 6 17 5 6 -6 -11 -11 -16 -10
-27 5 -7 10 -16 14 -19 9 -11 -18 5 -39 28 -37 13 2 23 -3 23 -9 0 -16 -27
-17 -45 -3 -10 8 -16 7 -23 -4 -8 -10 -8 -7 -4 11 7 24 7 24 -9 5 -11 -14 -15
-16 -16 -6 0 8 -3 11 -6 8 -4 -4 -1 -13 5 -21 16 -19 4 -39 -16 -31 -14 5 -14
3 -2 -12 7 -10 9 -15 5 -11 -5 4 -16 2 -24 -5 -13 -10 -15 -9 -9 6 4 10 3 16
-2 13 -4 -3 -8 -19 -9 -36 -1 -27 2 -30 21 -24 17 5 19 3 11 -6 -9 -8 -21 -9
-48 -2 -20 6 -34 7 -31 2 3 -5 -1 -11 -7 -13 -10 -4 -9 -8 2 -16 11 -7 17 -6
23 5 5 8 12 12 18 9 11 -7 12 -26 2 -24 -21 3 -24 -2 -12 -18 13 -15 12 -15
-8 -5 -23 12 -57 6 -48 -9 3 -4 13 -5 23 -2 16 6 16 6 0 -11 -22 -21 -38 -13
-36 18 2 17 7 22 18 18 12 -4 13 -2 3 8 -15 17 -45 -4 -36 -26 3 -8 0 -14 -6
-14 -6 0 -11 5 -11 11 0 5 -5 7 -10 4 -6 -3 -10 -11 -10 -16 0 -6 5 -7 10 -4
6 3 10 1 10 -5 0 -7 7 -10 15 -6 17 6 19 -2 5 -24 -5 -9 -5 -19 1 -27 6 -7 8
-17 4 -23 -7 -12 -26 -14 -24 -2 1 4 1 22 0 40 -1 26 -5 32 -23 32 -21 0 -21
0 -2 -15 18 -14 18 -14 -6 -16 -14 -1 -34 -1 -45 -1 -15 1 -16 -1 -4 -4 18 -5
33 -44 17 -44 -5 0 -6 -5 -3 -10 8 -13 -14 -42 -26 -34 -5 3 -6 10 -3 16 5 7
2 8 -5 4 -9 -6 -9 -12 3 -25 22 -24 48 -23 40 1 -3 10 0 18 6 18 8 0 10 -10 8
-25 -4 -17 -1 -25 8 -25 16 0 17 -9 5 -29 -8 -12 -16 -13 -45 -4 -22 7 -38 7
-42 2 -3 -5 -2 -9 3 -8 22 3 53 -15 53 -32 0 -33 -22 -70 -39 -64 -12 5 -12 2
2 -13 20 -22 22 -36 5 -26 -8 4 -10 3 -5 -2 5 -5 14 -9 20 -9 7 0 12 -10 11
-22 0 -12 4 -19 9 -16 5 3 7 0 5 -8 -3 -8 -12 -13 -21 -13 -9 1 -13 -4 -10
-12 3 -8 0 -14 -6 -14 -6 0 -11 5 -11 10 0 6 -5 10 -11 10 -6 0 -8 -9 -4 -20
6 -20 -14 -50 -34 -50 -5 0 -13 -4 -16 -10 -3 -6 1 -7 9 -4 9 4 16 1 16 -6 0
-9 6 -8 18 3 21 20 32 22 32 6 0 -5 -4 -8 -9 -5 -10 6 -25 -24 -16 -32 3 -3 5
0 5 6 0 7 5 12 11 12 6 0 9 -12 7 -27 -2 -16 2 -28 11 -31 8 -3 11 0 7 6 -3 5
1 13 10 16 8 3 12 10 9 16 -3 5 -2 10 4 10 7 0 7 8 1 25 -10 26 -4 31 19 16 7
-5 9 -11 4 -14 -14 -9 -4 -65 12 -71 7 -2 16 2 19 10 6 16 15 17 36 4 12 -7
10 -12 -9 -29 -13 -12 -19 -21 -12 -21 7 0 9 -5 4 -12 -11 -19 -13 -39 -2 -32
5 3 6 11 2 17 -4 7 0 6 10 -2 14 -11 17 -11 17 0 0 12 2 12 9 0 7 -10 9 -7 8
12 -2 28 -12 35 -20 15 -3 -8 -6 -7 -6 4 -1 26 20 33 36 13 7 -11 13 -14 13
-8 0 7 -4 15 -10 18 -15 10 -12 28 4 22 8 -3 17 -1 19 6 3 8 11 6 26 -8 l23
-20 -18 32 c-10 17 -22 29 -26 27 -3 -2 -9 0 -12 5 -3 5 1 11 9 15 8 3 15 12
15 21 0 10 9 15 27 15 26 0 26 -1 7 -15 -10 -8 -14 -15 -9 -14 17 2 55 -13 55
-22 0 -5 -8 -6 -17 -2 -14 5 -12 0 6 -20 13 -15 27 -24 31 -22 4 2 7 -2 7 -9
0 -7 -8 -11 -16 -9 -12 3 -17 -3 -18 -19 -1 -12 -7 -24 -13 -26 -11 -4 -14
-23 -2 -21 26 4 31 -3 25 -33 -6 -30 -5 -32 10 -20 9 8 13 20 10 28 -3 8 0 14
7 14 6 0 8 -5 4 -12 -6 -10 -4 -10 7 -2 20 16 52 14 38 -2 -7 -8 -6 -13 3 -16
10 -4 10 -10 1 -30 -14 -31 -41 -33 -39 -3 1 15 6 21 16 18 13 -4 13 -3 1 5
-15 11 -41 5 -41 -8 0 -15 -33 -20 -49 -8 -10 8 -9 5 3 -10 20 -23 42 -31 30
-9 -5 7 -1 6 10 -3 17 -13 17 -14 -1 -21 -10 -4 -12 -8 -5 -8 6 -1 12 -5 12
-11 0 -6 -9 -6 -24 0 -18 6 -26 5 -30 -5 -3 -10 0 -12 12 -8 9 3 4 -6 -12 -19
-17 -14 -26 -30 -22 -36 4 -7 2 -12 -3 -12 -6 0 -11 7 -11 15 0 22 -17 18 -23
-6 -4 -16 -10 -19 -28 -14 -16 5 -19 4 -14 -5 5 -9 4 -11 -4 -6 -7 5 -22 -3
-36 -18 -13 -14 -30 -26 -37 -25 -10 0 -10 2 0 6 6 2 12 12 12 20 0 13 -3 13
-16 2 -14 -11 -15 -10 -12 7 2 11 -2 18 -10 17 -6 -2 -12 3 -12 9 0 7 -7 2
-16 -11 -9 -13 -17 -34 -16 -48 0 -15 -3 -20 -8 -13 -6 9 -14 8 -36 -4 -27
-16 -28 -16 -4 -11 22 4 21 3 -5 -10 -16 -8 -35 -14 -42 -15 -6 0 -14 -4 -17
-8 -2 -4 24 -6 60 -5 70 3 87 -11 25 -21 -24 -3 -46 -15 -54 -27 -15 -21 -35
-10 -21 13 4 7 3 8 -4 4 -16 -10 -15 -31 3 -46 8 -7 15 -16 15 -21 0 -8 -40
-24 -52 -21 -5 1 -8 -3 -8 -8 0 -6 -5 -10 -11 -10 -5 0 -8 4 -5 9 3 5 -1 11
-9 15 -8 3 -15 11 -15 18 0 9 3 9 8 2 11 -17 50 -23 62 -10 13 17 0 29 -17 14
-11 -8 -12 -7 -7 6 5 13 0 16 -22 15 -29 0 -79 -17 -56 -18 17 -1 15 -21 -3
-21 -8 0 -15 5 -15 11 0 8 -4 8 -15 -1 -8 -6 -14 -15 -13 -18 2 -23 -3 -42
-12 -37 -5 3 -7 12 -3 21 4 12 1 13 -21 4 -19 -7 -25 -6 -23 3 3 19 -58 20
-92 2 -17 -8 -31 -12 -31 -7 0 5 17 16 37 26 29 14 34 20 22 27 -11 7 -11 9 4
9 10 0 29 -7 42 -16 28 -18 76 -15 83 5 3 9 0 11 -8 6 -9 -5 -10 -1 -6 16 6
20 5 21 -4 7 -15 -24 -29 -23 -23 2 3 11 0 20 -6 20 -6 0 -11 -11 -11 -25 0
-33 -13 -32 -39 3 -12 15 -20 20 -19 12 2 -8 -3 -14 -10 -12 -7 1 -15 -5 -18
-13 -5 -12 -9 -13 -20 -4 -16 13 -19 39 -4 39 5 0 7 -7 4 -15 -9 -23 6 -18 32
11 22 23 23 27 9 47 -8 12 -15 16 -15 8 0 -9 -7 -11 -21 -8 -12 3 -31 2 -44
-3 -20 -7 -21 -6 -18 18 3 18 1 23 -4 15 -7 -10 -13 -10 -29 2 -18 13 -17 14
13 10 18 -2 35 1 38 6 4 5 11 9 16 9 6 0 3 -7 -5 -16 -22 -22 -20 -24 17 -23
17 0 26 3 20 6 -8 3 -10 11 -5 21 5 9 8 28 8 42 -1 14 4 28 9 32 6 4 2 8 -9 8
-13 0 -16 5 -12 17 6 14 3 14 -15 -3 l-22 -19 6 24 c3 13 2 20 -3 15 -4 -5
-10 -18 -12 -28 -1 -11 -9 -21 -17 -24 -9 -3 -11 0 -6 8 4 7 2 16 -5 20 -7 4
-9 13 -6 19 4 6 10 9 14 7 4 -2 8 8 9 22 l1 27 -14 -27 c-16 -31 -48 -37 -58
-12 -9 23 -8 27 9 21 8 -4 17 -2 20 3 4 6 -3 10 -14 10 -11 0 -32 5 -48 11
-22 8 -24 12 -13 19 11 7 9 9 -8 7 -27 -2 -27 -2 -2 -27 12 -12 26 -18 31 -14
7 4 7 -1 0 -15 -10 -17 -9 -20 4 -15 18 7 21 -12 3 -20 -9 -4 -8 -5 2 -5 29 2
40 -1 40 -12 0 -6 -7 -8 -17 -4 -14 5 -15 4 -6 -6 10 -9 15 -10 27 0 26 22 26
-6 0 -32 -14 -14 -23 -31 -19 -37 3 -5 1 -10 -4 -10 -14 0 -14 27 -1 35 16 10
12 22 -11 28 -16 4 -18 3 -9 -8 6 -7 8 -19 5 -26 -7 -18 -45 -43 -53 -35 -3 3
0 6 7 6 7 0 9 5 4 12 -4 7 -6 25 -4 40 2 22 -3 29 -23 34 -13 3 -27 12 -30 20
-6 16 10 19 17 4 3 -6 4 -5 3 2 -2 7 -13 12 -24 11 -16 -2 -20 2 -16 15 5 14
4 14 -4 2 -8 -10 -8 -18 0 -27 8 -10 7 -13 -3 -13 -8 0 -22 12 -31 28 -10 15
-18 22 -18 15 0 -6 4 -15 10 -18 6 -3 10 -11 10 -17 0 -7 -5 -6 -14 1 -15 12
-32 -1 -23 -16 3 -5 -6 -9 -19 -9 -13 -1 -24 2 -24 8 0 5 5 6 10 3 6 -3 10 -2
10 4 0 5 7 17 16 25 8 9 11 16 5 16 -6 0 -8 6 -5 13 5 15 54 21 54 7 0 -5 7
-7 15 -4 10 4 13 13 10 25 -4 11 -2 19 5 19 6 0 8 5 4 11 -3 6 0 15 7 20 14 9
5 11 -69 11 -18 0 -35 5 -38 9 -3 5 -10 7 -15 4 -5 -4 -9 -1 -9 4 0 6 -4 11
-10 11 -5 0 -6 -7 -3 -17 5 -12 3 -14 -8 -9 -8 4 -2 -4 13 -17 15 -14 24 -29
20 -33 -4 -5 0 -3 8 3 13 10 16 8 17 -8 1 -11 -2 -17 -7 -14 -6 4 -7 -2 -3
-11 4 -11 2 -15 -4 -11 -6 4 -8 -3 -5 -18 2 -15 0 -25 -7 -25 -7 0 -10 4 -7 8
6 9 -27 63 -40 65 -5 1 -8 5 -7 8 1 3 -9 5 -22 3 -13 -1 -23 3 -22 8 3 15 -51
29 -57 15 -3 -8 -9 -6 -16 6 -6 9 -17 17 -25 17 -9 0 -12 6 -9 15 8 20 32 19
30 -1 0 -11 7 -18 22 -19 27 -2 28 5 1 39 -16 21 -24 24 -35 16 -7 -7 -23 -9
-34 -5 -15 5 -26 1 -36 -12 -9 -10 -13 -12 -9 -5 3 6 1 12 -4 12 -6 0 -11 5
-11 11 0 6 7 9 15 6 8 -4 17 -1 21 5 4 7 3 8 -4 4 -7 -4 -12 -3 -12 2 0 17 13
22 27 10 11 -9 12 -7 7 8 -5 18 -5 18 6 1 6 -9 8 -22 5 -27 -4 -6 4 -6 21 0
24 10 30 8 51 -17 l23 -28 -11 28 c-7 15 -17 27 -23 27 -6 0 -4 5 4 11 12 9
11 10 -5 4 -11 -4 -26 -9 -32 -12 -7 -3 -13 0 -13 5 0 6 8 13 18 15 16 4 16 5
0 6 -20 1 -23 12 -7 28 8 8 7 13 -2 18 -8 5 -10 4 -5 -3 4 -7 3 -12 -3 -12 -5
0 -13 5 -16 10 -4 6 -11 8 -16 5 -5 -3 -6 1 -3 9 4 11 0 13 -14 9 -11 -2 -23
0 -26 6 -5 7 3 10 20 9 14 -2 29 -8 31 -15 3 -7 9 -10 14 -7 5 3 2 12 -6 20
-20 20 -20 40 0 24 13 -11 14 -10 9 4 -8 20 -18 20 -34 1 -7 -8 -18 -15 -24
-15 -6 0 -4 5 4 10 11 7 11 10 2 10 -7 0 -11 4 -8 9 4 5 -3 7 -14 4 -11 -3
-20 -12 -20 -20 0 -8 -4 -12 -9 -8 -5 3 -13 -4 -16 -16 -5 -14 -13 -19 -26
-16 -10 3 -17 1 -13 -4 8 -14 34 -11 40 6 4 8 12 15 20 15 8 0 14 7 14 15 0 8
4 15 10 15 6 0 5 -10 -2 -25 -6 -13 -16 -21 -22 -18 -6 4 -2 -4 9 -17 17 -20
17 -22 3 -17 -11 4 -15 2 -12 -7 5 -13 -20 -18 -46 -9 -11 4 -8 8 10 13 l25 8
-28 1 c-15 1 -30 8 -33 16 -4 8 -9 13 -13 11 -4 -3 -7 4 -7 15 0 12 7 19 18
19 10 0 18 4 18 9 0 5 8 7 19 4 10 -3 22 0 25 5 8 14 -4 43 -15 36 -5 -3 -6
-10 -3 -16 5 -7 2 -8 -5 -4 -7 5 -17 19 -22 33 -11 30 -18 26 -25 -13 -7 -40
-14 -43 -14 -8 0 36 23 73 34 56 4 -7 12 -12 19 -12 6 0 1 7 -11 16 -12 8 -22
20 -22 27 0 8 3 8 12 -1 15 -15 38 -16 38 -1 0 5 -5 7 -12 3 -7 -4 -2 6 10 23
12 17 22 41 22 52 0 12 5 21 11 21 6 0 4 7 -5 15 -18 18 -40 20 -29 3 14 -24
12 -40 -4 -34 -14 6 -14 4 -2 -11 9 -11 10 -14 2 -9 -8 4 -13 2 -13 -7 0 -8
-7 -18 -16 -21 -14 -5 -15 -4 -4 9 15 18 -1 20 -18 3 -9 -9 -12 -9 -12 0 0 7
4 12 8 12 5 0 7 15 5 33 l-4 32 14 -30 c10 -22 15 -26 19 -14 3 9 2 22 -3 30
-13 21 -11 32 5 26 8 -3 31 10 52 29 22 19 31 32 22 28 -19 -7 -25 11 -7 22 6
3 8 16 5 28 -3 11 -1 28 4 36 6 9 5 17 -3 23 -8 5 -5 7 8 4 11 -2 19 -9 17
-15 -1 -7 2 -12 7 -12 9 0 24 27 26 45 0 6 4 16 8 22 6 9 3 11 -8 7 -10 -4
-13 -13 -10 -24 3 -10 1 -21 -5 -25 -6 -4 -10 5 -10 21 0 22 -2 25 -15 14 -9
-7 -15 -8 -15 -2 0 5 -7 12 -15 16 -13 4 -14 2 -5 -14 9 -16 8 -20 -6 -20 -13
0 -15 -6 -11 -29 7 -33 -13 -48 -41 -31 -14 8 -12 9 11 10 17 0 26 4 22 10 -4
6 -9 8 -13 6 -4 -2 -14 3 -22 12 -13 14 -12 15 3 9 9 -3 19 -2 22 2 2 5 -6 11
-20 13 -13 3 -22 2 -20 -2 3 -4 -4 -10 -15 -13 -11 -3 -20 -1 -20 4 0 5 5 9
10 9 6 0 10 7 10 16 0 13 6 15 28 9 18 -4 24 -3 17 3 -14 14 -57 18 -75 8 -12
-7 -13 -6 -2 5 15 16 16 29 0 29 -6 0 -20 8 -31 18 -11 9 -17 11 -13 5 4 -7 2
-13 -3 -13 -17 0 -13 -27 4 -34 8 -3 15 -15 15 -26 0 -12 4 -18 10 -15 6 4 10
3 9 -2 -1 -4 0 -10 1 -13 8 -22 7 -40 -3 -37 -7 3 -11 10 -9 17 1 6 -3 10 -10
7 -7 -2 -12 -11 -10 -21 4 -20 -14 -21 -22 -1 -3 8 -1 15 4 15 19 0 10 42 -10
47 -11 3 -20 9 -20 13 0 5 -7 10 -15 12 -13 2 -12 5 4 15 17 11 19 10 14 -4
-4 -11 -3 -14 5 -9 6 4 11 18 10 31 -1 13 -5 22 -9 19 -4 -2 -18 7 -31 19 -20
19 -27 20 -37 10 -18 -20 -40 -16 -38 7 2 24 17 27 17 3 0 -9 3 -13 7 -9 11
10 11 56 1 50 -5 -3 -17 4 -26 16 -17 21 -19 21 -34 6 -14 -14 -17 -14 -22 0
-3 8 -2 12 4 9 6 -3 10 -2 10 4 0 5 10 13 23 17 l22 8 -25 7 c-14 3 -36 5 -50
2 -24 -4 -24 -4 -6 11 13 11 23 12 31 6 16 -14 27 0 13 17 -8 11 -7 12 5 8 8
-4 18 -1 22 5 3 6 1 9 -5 8 -7 -2 -14 5 -15 15 -2 9 -1 17 3 17 3 0 15 -8 26
-17 21 -18 21 -18 3 3 -14 17 -15 23 -5 26 7 3 -2 8 -20 13 -22 4 -38 3 -45
-5 -9 -9 -5 -10 18 -5 28 5 28 4 8 -6 -42 -22 -92 37 -58 68 4 5 5 2 1 -4 -4
-8 -1 -13 8 -13 9 0 16 5 16 11 0 5 5 7 10 4 6 -3 10 -11 10 -16 0 -6 -5 -7
-10 -4 -5 3 -10 1 -10 -4 0 -6 -8 -11 -17 -11 -13 0 -14 -3 -5 -12 9 -9 16 -8
30 5 10 9 22 14 27 10 4 -5 5 -2 0 6 -4 8 -2 16 5 21 20 12 3 49 -20 43 -12
-3 -20 0 -20 6 0 7 5 9 12 5 7 -4 8 -3 4 4 -10 17 -26 15 -26 -3 0 -8 -5 -15
-10 -15 -6 0 -8 12 -5 28 3 15 2 21 -2 12 -10 -19 -45 -19 -50 0 -4 12 -2 12
5 2 7 -10 12 -10 22 4 17 20 22 44 8 44 -6 0 -8 7 -4 15 3 8 2 14 -2 14 -18
-3 -32 2 -32 12 0 5 5 7 10 4 6 -3 10 1 10 9 0 16 -8 20 -47 18 -13 -1 -23 3
-23 8 0 6 7 10 15 10 8 0 22 14 30 30 9 18 21 28 27 24 7 -4 8 -3 4 4 -4 6
-13 9 -21 5 -8 -3 -15 0 -15 6 0 6 7 11 15 11 8 0 16 5 16 10 3 20 4 25 13 39
7 10 6 12 -4 6 -7 -4 -16 -2 -21 6 -8 12 -11 12 -19 -1 -8 -13 -10 -12 -10 3
0 10 -4 16 -10 12 -5 -3 -7 -12 -4 -19 3 -7 -2 -16 -10 -19 -20 -8 -20 3 -1
29 21 28 18 34 -17 34 l-33 0 29 15 c35 19 33 19 40 -8 3 -13 14 -24 23 -25
36 -2 63 9 63 24 0 11 5 14 16 10 9 -3 17 -6 19 -6 2 0 1 -10 -2 -22 -3 -13
-2 -20 2 -16 4 4 9 24 11 45 2 31 1 35 -8 19 -8 -15 -12 -16 -19 -5 -16 25
-11 28 68 32 l32 2 -20 21 c-10 11 -17 24 -14 27 3 4 -1 3 -7 -3 -7 -5 -25
-10 -40 -10 -18 0 -28 -5 -28 -14 0 -8 -4 -17 -9 -20 -15 -10 -7 28 9 42 13
12 13 13 -2 8 -10 -3 -18 -1 -18 4 0 6 7 10 15 10 8 0 15 5 15 10 0 6 -7 10
-15 10 -8 0 -15 7 -15 16 0 13 3 14 13 5 8 -6 17 -7 21 -3 4 4 7 2 6 -3 -5
-23 1 -55 10 -55 5 0 7 7 4 15 -4 8 -1 15 5 15 7 0 9 10 7 25 -3 14 0 25 5 25
8 0 13 -15 10 -33 -1 -5 3 -6 8 -3 13 8 7 36 -10 47 -10 6 -10 9 -1 9 7 0 12
12 12 28 l-1 27 -15 -25 c-14 -23 -14 -23 -9 -2 7 26 -10 30 -24 5 -10 -17
-10 -17 -11 0 0 16 -45 17 -805 17 l-805 0 0 -1355z m3410 1335 c0 -5 -4 -10
-10 -10 -5 0 -10 5 -10 10 0 6 5 10 10 10 6 0 10 -4 10 -10z m50 -20 c0 -5 -4
-10 -10 -10 -5 0 -10 5 -10 10 0 6 5 10 10 10 6 0 10 -4 10 -10z m-1831 -21
c-16 -10 -23 -4 -14 10 3 6 11 8 17 5 6 -4 5 -9 -3 -15z m1591 9 c0 -4 -4 -8
-9 -8 -6 0 -12 4 -15 8 -3 5 1 9 9 9 8 0 15 -4 15 -9z m185 2 c3 -5 1 -10 -4
-10 -6 0 -11 5 -11 10 0 6 2 10 4 10 3 0 8 -4 11 -10z m-582 -22 c20 -15 18
-69 -2 -76 -8 -3 -11 0 -7 6 4 6 -3 6 -19 -1 -17 -8 -20 -13 -10 -15 18 -4 10
-22 -10 -22 -18 0 -47 29 -40 41 4 5 2 9 -3 9 -6 0 -8 9 -5 20 3 11 10 20 15
20 5 0 16 7 24 15 19 18 35 19 57 3z m178 -41 c-8 -8 -11 -5 -11 9 0 27 14 41
18 19 2 -9 -1 -22 -7 -28z m339 33 c0 -5 6 -9 13 -7 6 1 11 -4 10 -10 -2 -7 2
-13 8 -13 5 0 7 -5 3 -11 -4 -7 -1 -10 6 -7 7 2 14 12 16 22 3 23 12 32 22 21
4 -4 1 -10 -6 -12 -6 -3 -10 -9 -6 -14 10 -17 -23 -38 -54 -34 -33 4 -72 21
-72 32 0 8 41 43 52 43 4 0 8 -4 8 -10z m-1793 -12 c-2 -7 0 -21 5 -30 6 -12
5 -18 -2 -18 -14 0 -24 26 -16 45 7 18 20 20 13 3z m1893 -18 c0 -5 -4 -10
-10 -10 -5 0 -10 5 -10 10 0 6 5 10 10 10 6 0 10 -4 10 -10z m180 -29 c0 -9
-24 -21 -41 -21 -5 0 -9 5 -9 11 0 6 7 9 15 5 8 -3 15 -1 15 4 0 6 5 10 10 10
6 0 10 -4 10 -9z m-2064 -14 c18 6 18 6 2 -10 -23 -23 -33 -21 -35 5 -2 15 1
18 6 10 5 -8 15 -10 27 -5z m1869 3 c-3 -5 -12 -10 -18 -10 -7 0 -6 4 3 10 19
12 23 12 15 0z m-1760 -30 c-11 -5 -27 -9 -35 -9 -13 -1 -13 0 0 9 8 5 24 9
35 9 l20 0 -20 -9z m-101 -15 c-4 -8 -11 -12 -16 -9 -6 4 -5 10 3 15 19 12 19
11 13 -6z m2033 4 c-9 -6 -15 -14 -13 -18 3 -4 -1 -8 -9 -8 -8 0 -16 6 -19 13
-3 9 1 11 11 7 11 -4 14 -2 9 5 -5 8 1 12 16 12 21 -1 21 -2 5 -11z m-2019
-50 c3 -11 2 -11 -7 1 -9 12 -11 11 -11 -7 0 -15 -6 -23 -16 -23 -14 0 -14 3
-4 15 11 13 10 14 -6 9 -18 -6 -17 -5 1 9 23 19 37 17 43 -4z m1178 5 c-3 -9
-6 -18 -6 -20 0 -2 -10 -4 -22 -4 -21 0 -21 0 -2 19 23 24 38 27 30 5z m884
-4 c9 -5 19 -5 27 2 9 7 13 7 13 -1 0 -6 -5 -11 -11 -11 -5 0 -7 -4 -4 -10 11
-17 25 -11 25 11 0 12 4 17 11 14 6 -4 8 -14 5 -22 -5 -11 -1 -13 16 -7 20 6
21 5 6 -10 -20 -19 -42 -21 -60 -3 -7 7 -24 21 -38 30 -25 17 -17 24 10 7z
m-2170 -50 c-6 -11 -12 -20 -14 -20 -3 0 -1 23 3 38 1 1 6 2 11 2 7 0 7 -6 0
-20z m2277 -12 c-3 -8 -6 -5 -6 6 -1 11 2 17 5 13 3 -3 4 -12 1 -19z m-2207
-23 c0 -8 -4 -15 -8 -15 -5 0 -14 -12 -20 -26 -9 -19 -9 -24 0 -18 8 5 9 2 5
-10 -4 -10 -7 -20 -7 -22 0 -2 -5 -4 -11 -4 -5 0 -8 4 -4 9 3 5 1 12 -4 15
-10 7 -9 19 4 51 14 34 45 47 45 20z m2275 -5 c-3 -5 -12 -10 -18 -10 -7 0 -6
4 3 10 19 12 23 12 15 0z m-2405 -15 c0 -8 -4 -15 -10 -15 -5 0 -7 7 -4 15 4
8 8 15 10 15 2 0 4 -7 4 -15z m18 -29 c-7 -8 -15 -12 -17 -11 -5 6 10 25 20
25 5 0 4 -6 -3 -14z m37 -6 c3 -5 -1 -10 -10 -10 -9 0 -13 5 -10 10 3 6 8 10
10 10 2 0 7 -4 10 -10z m-178 -15 c0 -8 -4 -15 -9 -15 -10 0 -11 14 -1 23 9
10 10 9 10 -8z m38 -35 c3 -5 1 -10 -4 -10 -6 0 -11 5 -11 10 0 6 2 10 4 10 3
0 8 -4 11 -10z m2465 -6 c0 -2 -7 -4 -15 -4 -8 0 -15 4 -15 10 0 5 7 7 15 4 8
-4 15 -8 15 -10z m-2555 -4 c3 -6 -1 -7 -9 -4 -18 7 -21 14 -7 14 6 0 13 -4
16 -10z m2520 -29 c-1 -8 -7 -16 -14 -17 -7 -2 -7 0 -1 3 7 3 8 9 1 17 -8 9
-7 13 3 13 8 0 13 -7 11 -16z m-2275 -10 c0 -5 -7 -12 -16 -15 -14 -5 -15 -4
-4 9 14 17 20 19 20 6z m37 -23 c1 -18 0 -28 -3 -21 -4 8 -15 9 -37 2 -29 -8
-30 -7 -13 6 11 8 23 15 28 15 4 0 5 7 2 15 -4 9 0 15 8 15 9 0 14 -12 15 -32z
m-296 5 c13 -16 12 -17 -3 -4 -10 7 -18 15 -18 17 0 8 8 3 21 -13z m122 2 c-3
-9 -8 -14 -10 -11 -3 3 -2 9 2 15 9 16 15 13 8 -4z m-219 -31 c20 -10 36 -21
36 -25 0 -4 9 -5 20 -2 14 4 20 0 20 -13 0 -9 -3 -14 -7 -11 -11 12 -68 -99
-78 -153 -17 -91 -20 -132 -19 -215 2 -121 25 -200 67 -226 28 -17 47 -19 139
-17 95 3 109 6 131 26 28 27 45 91 53 210 7 86 16 122 34 122 11 0 93 -152
115 -215 9 -27 20 -57 23 -65 20 -57 37 -181 25 -188 -8 -5 -7 -10 1 -18 14
-13 39 0 49 26 5 13 5 13 6 0 1 -40 -32 -58 -116 -61 -13 -1 -28 -8 -34 -16
-10 -11 -15 -11 -30 3 -11 10 -19 12 -19 6 0 -7 5 -12 10 -12 6 0 10 -4 10 -9
0 -5 -18 -9 -40 -8 -22 1 -40 6 -40 10 0 5 -6 5 -13 -1 -8 -7 -18 -7 -27 -2
-24 15 -33 11 -16 -6 9 -8 16 -21 16 -27 0 -8 -3 -7 -9 2 -5 7 -13 11 -19 7
-6 -3 -13 -3 -16 2 -3 5 -19 7 -36 4 -17 -2 -30 0 -30 6 0 6 9 8 19 5 11 -3
28 0 38 6 13 7 -24 10 -140 10 -86 0 -162 3 -167 6 -6 3 -10 1 -10 -5 0 -6 -5
-8 -10 -5 -6 4 -7 11 -4 17 4 6 -3 5 -16 -2 -12 -6 -24 -9 -28 -6 -3 3 1 6 8
6 7 0 10 3 7 6 -4 4 -14 1 -23 -7 -14 -11 -17 -10 -25 4 -6 9 -18 17 -27 16
-14 0 -13 -2 3 -9 16 -7 14 -8 -12 -7 -31 2 -47 16 -20 18 6 0 -1 5 -18 10
-16 5 -39 7 -50 4 -11 -3 -14 -2 -7 1 6 3 9 10 6 15 -4 6 -11 6 -20 -1 -7 -7
-19 -10 -26 -7 -7 3 -4 6 7 6 17 1 16 4 -10 22 -28 19 -28 20 -5 13 14 -3 27
-11 28 -15 2 -5 7 -7 12 -4 4 2 32 -3 61 -12 73 -22 78 -23 129 -28 34 -4 28
-1 -23 10 -37 9 -80 21 -95 27 -15 6 -30 11 -34 10 -13 -3 -98 88 -98 104 0
11 -6 14 -16 10 -12 -4 -14 -1 -9 14 4 13 1 22 -9 26 -9 3 -16 14 -16 24 0 11
-4 21 -9 24 -5 4 -8 18 -6 32 1 15 -3 28 -12 31 -15 6 -15 26 4 173 3 25 6 53
7 62 0 9 4 14 8 12 11 -7 27 37 20 54 -2 7 4 22 13 32 10 11 15 20 12 20 -4 0
1 8 11 18 9 10 28 31 42 48 36 42 95 84 119 84 12 0 21 5 21 11 0 16 120 3
164 -17z m2910 10 c3 -7 12 -11 20 -8 9 3 26 -5 39 -18 13 -13 28 -23 34 -21
5 2 31 -22 56 -54 25 -32 53 -66 62 -76 9 -10 13 -26 10 -37 -3 -10 1 -33 10
-51 9 -17 17 -46 18 -65 1 -19 5 -34 9 -34 7 0 1 -71 -7 -79 -3 -2 0 -10 5
-16 11 -13 4 -45 -10 -45 -4 0 -5 -11 -2 -25 4 -25 -20 -89 -38 -100 -5 -3 -6
-13 -3 -22 4 -11 3 -14 -5 -9 -7 4 -12 1 -12 -6 0 -8 -17 -32 -38 -55 -32 -34
-53 -46 -123 -67 -46 -14 -97 -27 -114 -29 l-30 -4 31 -2 c17 0 53 6 80 14 57
17 74 19 74 6 0 -8 -66 -26 -82 -23 -4 1 -5 -5 -2 -13 5 -11 -2 -13 -35 -9
-27 3 -41 1 -41 -7 0 -8 -4 -9 -13 0 -8 6 -16 8 -19 5 -4 -3 -75 -5 -159 -5
-150 1 -172 -3 -107 -19 l33 -8 -35 1 c-20 0 -41 -2 -47 -6 -6 -4 -16 0 -22 7
-9 11 -9 15 1 19 9 2 8 4 -2 3 -8 -1 -16 -10 -18 -20 -3 -11 0 -16 7 -12 6 4
11 0 11 -10 0 -14 -3 -14 -15 -4 -17 14 -31 8 -21 -9 6 -10 37 -8 56 4 7 4 7
-3 0 -20 -7 -19 -7 -24 1 -19 9 5 10 -3 5 -29 -4 -20 -2 -38 3 -41 6 -4 8 2 6
13 -3 16 2 19 23 18 23 -2 27 2 26 26 -1 29 3 31 33 20 16 -6 16 -8 -5 -13
-22 -5 -22 -6 -7 -25 9 -11 14 -14 10 -7 -4 8 3 12 22 12 l28 -1 -34 -18 c-21
-11 -30 -21 -22 -25 6 -4 17 -4 24 0 8 5 8 3 -2 -9 -7 -9 -18 -14 -25 -11 -6
3 -3 -1 7 -9 9 -8 17 -17 17 -21 0 -11 -28 -6 -33 7 -3 7 -6 4 -6 -6 -1 -10
-6 -15 -11 -12 -6 4 -8 10 -5 15 3 4 -7 12 -23 18 -30 10 -28 14 -32 -73 -2
-34 -20 -51 -20 -19 0 8 -5 12 -11 9 -6 -4 -8 -13 -5 -21 3 -8 0 -11 -10 -7
-15 6 -20 23 -5 23 14 0 5 81 -10 91 -12 7 -11 9 1 9 8 0 23 11 32 24 16 22
16 25 1 38 -12 9 -15 9 -9 1 4 -7 3 -13 -3 -13 -6 0 -8 -7 -5 -15 4 -8 1 -15
-4 -15 -6 0 -14 9 -17 20 -7 21 -26 28 -21 8 1 -7 1 -10 -1 -5 -3 4 -9 5 -14
2 -5 -4 -6 1 -3 9 3 9 13 16 20 16 10 0 14 10 12 36 -1 22 3 39 12 45 11 7 6
8 -15 3 -16 -4 -32 -8 -34 -10 -2 -2 -10 1 -17 7 -8 7 -14 7 -19 -1 -3 -5 -14
-10 -24 -10 -10 0 -26 -11 -34 -24 -18 -27 -11 -38 31 -50 12 -4 20 -12 17
-17 -4 -5 2 -9 11 -9 16 0 16 -1 0 -19 -9 -10 -16 -22 -15 -27 3 -18 -1 -34
-10 -34 -4 0 -7 14 -5 31 2 18 0 28 -6 24 -6 -3 -10 0 -10 7 0 20 -51 45 -84
42 -15 -2 -26 -1 -24 2 3 2 -12 23 -34 45 -35 36 -49 75 -23 67 5 -2 9 -7 7
-13 -2 -5 5 -15 15 -23 10 -7 16 -16 13 -19 -3 -3 12 -16 32 -29 36 -23 38
-23 48 -5 13 26 13 71 -1 71 -5 0 -8 4 -5 9 3 5 -3 11 -14 14 -20 5 -28 -7
-11 -17 5 -3 11 -14 13 -24 4 -12 -1 -18 -14 -19 -12 -1 -18 4 -16 15 2 11 -4
18 -17 18 -35 3 -36 4 -28 17 11 17 15 49 8 66 -5 13 -8 13 -14 2 -5 -7 -14
-12 -21 -9 -8 2 -3 11 14 21 19 13 26 14 26 5 0 -14 40 -44 40 -31 1 17 10
150 12 173 2 14 6 27 9 30 12 10 22 53 10 46 -7 -5 -9 -1 -5 8 3 9 10 14 14
11 4 -2 15 17 25 43 27 71 98 193 109 189 6 -2 17 -62 24 -133 22 -205 41
-227 201 -231 128 -3 144 6 172 98 19 63 21 87 16 198 -3 69 -11 149 -18 178
-13 55 -77 150 -98 145 -7 -1 -10 2 -6 8 3 5 14 10 24 10 10 0 21 3 25 7 3 4
14 8 24 10 10 1 32 8 49 15 43 18 130 20 137 2z m-3210 -34 c-6 -5 -24 21 -24
34 0 6 6 1 14 -10 8 -10 12 -21 10 -24z m721 20 c-3 -4 2 -11 11 -14 16 -6 11
-26 -7 -26 -6 0 -8 4 -5 9 4 5 -2 7 -13 4 -10 -3 -22 0 -25 6 -4 6 0 11 8 11
9 0 16 7 16 16 0 8 5 12 10 9 6 -4 8 -10 5 -15z m-205 0 c0 -5 -5 -10 -11 -10
-5 0 -7 5 -4 10 3 6 8 10 11 10 2 0 4 -4 4 -10z m-60 -10 c0 -5 -5 -10 -11
-10 -5 0 -7 5 -4 10 3 6 8 10 11 10 2 0 4 -4 4 -10z m170 -10 c0 -5 -5 -10
-11 -10 -5 0 -7 5 -4 10 3 6 8 10 11 10 2 0 4 -4 4 -10z m2180 -6 c0 -2 -7 -4
-15 -4 -8 0 -15 4 -15 10 0 5 7 7 15 4 8 -4 15 -8 15 -10z m-2120 -14 c8 -5
12 -12 9 -15 -8 -8 -39 5 -39 16 0 11 11 11 30 -1z m-100 -30 c0 -3 -9 -6 -19
-6 -12 0 -19 7 -18 17 1 13 5 14 19 5 10 -6 18 -13 18 -16z m101 -4 c5 3 9 0
9 -5 0 -6 8 -11 17 -11 9 0 13 -3 10 -6 -10 -11 -67 17 -60 29 5 8 8 7 11 -1
2 -7 8 -10 13 -6z m-41 -36 c0 -15 -17 -12 -24 5 -3 9 -12 12 -23 9 -15 -5
-15 -4 -4 4 16 12 51 -1 51 -18z m-730 10 c0 -5 -2 -10 -4 -10 -3 0 -8 5 -11
10 -3 6 -1 10 4 10 6 0 11 -4 11 -10z m910 -4 c0 -11 -19 -15 -25 -6 -3 5 1
10 9 10 9 0 16 -2 16 -4z m-225 -16 c-3 -5 -10 -10 -16 -10 -5 0 -9 5 -9 10 0
6 7 10 16 10 8 0 12 -4 9 -10z m95 -20 c8 -5 12 -12 9 -15 -8 -8 -39 5 -39 16
0 11 11 11 30 -1z m-85 -28 c-3 -3 -11 0 -18 7 -9 10 -8 11 6 5 10 -3 15 -9
12 -12z m125 -22 c8 -5 11 -12 7 -17 -5 -4 -12 -1 -18 7 -8 13 -10 13 -19 0
-5 -8 -10 -10 -10 -4 0 23 16 29 40 14z m-335 -55 c0 -36 -2 -40 -32 -46 -44
-9 -62 7 -56 48 5 33 20 42 63 40 22 -2 25 -6 25 -42z m2609 35 c21 -8 26 -16
26 -44 0 -39 -15 -48 -57 -37 -47 13 -60 91 -14 91 11 0 31 -4 45 -10z m-2239
-21 c11 -17 -1 -21 -15 -4 -8 9 -8 15 -2 15 6 0 14 -5 17 -11z m1869 -1 c-3
-4 -11 -5 -19 -1 -21 7 -19 12 4 10 11 0 18 -5 15 -9z m-2814 -63 c0 -8 -4
-15 -10 -15 -5 0 -7 7 -4 15 4 8 8 15 10 15 2 0 4 -7 4 -15z m3707 -7 c-3 -8
-6 -5 -6 6 -1 11 2 17 5 13 3 -3 4 -12 1 -19z m-2717 2 c0 -5 -4 -10 -10 -10
-5 0 -10 5 -10 10 0 6 5 10 10 10 6 0 10 -4 10 -10z m34 -60 c-6 -6 -10 -3
-10 10 0 13 4 16 10 10 7 -7 7 -13 0 -20z m-1039 -20 c3 -6 -1 -7 -9 -4 -18 7
-21 14 -7 14 6 0 13 -4 16 -10z m2682 -6 c-3 -3 -12 -4 -19 -1 -8 3 -5 6 6 6
11 1 17 -2 13 -5z m-2682 -24 c3 -5 2 -10 -4 -10 -5 0 -13 5 -16 10 -3 6 -2
10 4 10 5 0 13 -4 16 -10z m1115 -28 c0 -4 -9 -8 -20 -9 -16 -1 -17 1 -7 12
12 13 27 11 27 -3z m-1120 -7 c10 -12 10 -15 -4 -15 -9 0 -16 7 -16 15 0 8 2
15 4 15 2 0 9 -7 16 -15z m1226 -32 c-7 -7 -26 7 -26 19 0 6 6 6 15 -2 9 -7
13 -15 11 -17z m-111 7 c-3 -5 -11 -10 -16 -10 -6 0 -7 5 -4 10 3 6 11 10 16
10 6 0 7 -4 4 -10z m-31 -26 c3 -8 2 -12 -4 -9 -6 3 -10 10 -10 16 0 14 7 11
14 -7z m1546 -54 c-12 -10 -19 -24 -15 -29 9 -16 -8 -13 -31 4 -19 15 -19 15
0 8 15 -5 18 -3 13 10 -4 11 -2 14 8 11 8 -3 19 4 26 18 8 15 14 18 17 10 2
-7 -6 -21 -18 -32z m-1525 21 c-3 -5 4 -12 15 -16 11 -4 17 -11 14 -17 -5 -7
-1 -9 9 -5 19 7 20 6 11 -17 -8 -20 -34 -9 -34 16 0 10 -4 16 -10 13 -5 -3
-10 -4 -10 -1 0 2 -3 11 -6 20 -3 9 -1 16 6 16 6 0 9 -4 5 -9z m-1085 -36 c7
-8 9 -15 6 -15 -4 0 -14 7 -22 15 -9 8 -11 15 -6 15 5 0 15 -7 22 -15z m1265
5 c3 -6 -4 -10 -17 -10 -18 0 -20 2 -8 10 19 12 18 12 25 0z m1235 1 c0 -18
-12 -41 -22 -41 -6 0 -5 6 2 15 10 12 10 15 -4 15 -9 0 -16 5 -16 10 0 6 9 10
20 10 11 0 20 -4 20 -9z m-2522 -46 c-3 -3 -9 2 -12 12 -6 14 -5 15 5 6 7 -7
10 -15 7 -18z m3756 10 c-4 -8 -11 -15 -16 -15 -6 0 -5 6 2 15 7 8 14 15 16
15 2 0 1 -7 -2 -15z m-38 -14 c0 -11 -5 -17 -13 -14 -17 6 -17 20 0 26 6 3 12
6 12 6 1 1 1 -7 1 -18z m-3671 -1 c3 -5 -1 -10 -10 -10 -9 0 -13 5 -10 10 3 6
8 10 10 10 2 0 7 -4 10 -10z m1325 -10 c0 -12 -33 -5 -38 8 -2 6 5 8 17 5 12
-3 21 -9 21 -13z m-193 4 c-3 -3 -12 -4 -19 -1 -8 3 -5 6 6 6 11 1 17 -2 13
-5z m-1112 -24 c-3 -5 -10 -10 -16 -10 -5 0 -9 5 -9 10 0 6 7 10 16 10 8 0 12
-4 9 -10z m1277 -42 c-8 -10 -25 -18 -36 -18 -20 1 -20 1 -3 14 10 8 17 18 16
22 -5 30 2 37 20 18 17 -17 17 -21 3 -36z m2358 42 c0 -5 -7 -10 -15 -10 -8 0
-15 5 -15 10 0 6 7 10 15 10 8 0 15 -4 15 -10z m-2470 -10 c0 -5 -5 -10 -11
-10 -5 0 -7 5 -4 10 3 6 8 10 11 10 2 0 4 -4 4 -10z m2488 -10 c-7 -11 -16
-20 -20 -20 -5 0 -3 9 4 20 7 11 16 20 20 20 5 0 3 -9 -4 -20z m-3678 -10 c0
-5 -2 -10 -4 -10 -3 0 -8 5 -11 10 -3 6 -1 10 4 10 6 0 11 -4 11 -10z m45 0
c-3 -5 2 -10 12 -10 15 0 16 -2 3 -10 -9 -6 -17 -5 -22 3 -11 17 -10 27 3 27
5 0 7 -4 4 -10z m3577 -8 c-7 -2 -10 -8 -6 -13 6 -10 -9 -13 -19 -3 -9 9 16
33 28 26 5 -3 4 -7 -3 -10z m-2408 -8 c4 -9 4 -19 1 -22 -6 -6 -35 18 -35 29
0 16 28 10 34 -7z m-1129 -25 c-4 -6 -13 -8 -21 -5 -8 3 -14 1 -14 -4 0 -6 5
-10 10 -10 6 0 10 -5 10 -12 0 -6 -9 -3 -20 7 -16 14 -17 20 -8 27 19 12 50
10 43 -3z m3515 5 c0 -11 -26 -31 -49 -39 l-24 -7 24 25 c22 24 49 35 49 21z
m-5 -39 c-16 -13 -32 -22 -35 -19 -2 3 3 10 13 15 9 6 23 16 30 24 6 7 14 11
17 8 3 -3 -8 -15 -25 -28z m-3490 15 c-3 -5 -10 -10 -16 -10 -5 0 -9 5 -9 10
0 6 7 10 16 10 8 0 12 -4 9 -10z m2365 -20 c0 -5 -4 -10 -10 -10 -5 0 -10 5
-10 10 0 6 5 10 10 10 6 0 10 -4 10 -10z m-2370 -10 c0 -5 -4 -10 -10 -10 -5
0 -10 5 -10 10 0 6 5 10 10 10 6 0 10 -4 10 -10z m3411 -4 c-9 -11 -9 -15 1
-19 9 -4 9 -6 1 -6 -6 -1 -15 4 -18 9 -8 12 2 30 17 30 7 0 7 -5 -1 -14z m-35
-11 c-3 -8 0 -15 6 -15 6 0 9 -2 6 -5 -3 -3 -18 0 -34 6 l-29 12 25 7 c14 5
27 8 29 9 2 1 1 -6 -3 -14z m74 5 c0 -5 -4 -10 -10 -10 -5 0 -10 5 -10 10 0 6
5 10 10 10 6 0 10 -4 10 -10z m-2455 -10 c3 -5 1 -10 -4 -10 -6 0 -11 5 -11
10 0 6 2 10 4 10 3 0 8 -4 11 -10z m-875 -30 c0 -5 -2 -10 -4 -10 -3 0 -8 5
-11 10 -3 6 -1 10 4 10 6 0 11 -4 11 -10z m3196 -7 c-4 -4 -19 -8 -34 -10 -23
-2 -24 -1 -7 7 24 11 51 13 41 3z m-919 -9 c-3 -3 -12 -4 -19 -1 -8 3 -5 6 6
6 11 1 17 -2 13 -5z m-2207 -34 c12 -8 11 -10 -7 -10 -12 0 -25 5 -28 10 -8
13 15 13 35 0z m930 0 c0 -5 -5 -10 -11 -10 -5 0 -7 5 -4 10 3 6 8 10 11 10 2
0 4 -4 4 -10z m2185 0 c-3 -5 -18 -10 -33 -9 -24 0 -25 1 -7 9 28 12 47 12 40
0z m-2824 -23 c-10 -9 -11 -8 -5 6 3 10 9 15 12 12 3 -3 0 -11 -7 -18z m2499
-12 c0 -5 -5 -3 -10 5 -5 8 -10 20 -10 25 0 6 5 3 10 -5 5 -8 10 -19 10 -25z
m177 29 c-3 -3 -12 -4 -19 -1 -8 3 -5 6 6 6 11 1 17 -2 13 -5z m-2363 -13 c3
-5 -1 -11 -9 -14 -9 -4 -12 -1 -8 9 6 16 10 17 17 5z m1618 -9 c-7 -2 -12 -10
-12 -18 0 -8 -4 -14 -10 -14 -5 0 -10 5 -10 10 0 6 -8 10 -17 10 -15 0 -16 2
-3 9 8 6 17 8 21 5 4 -2 10 0 14 6 4 6 11 7 18 3 8 -5 8 -8 -1 -11z m38 -38
c12 -31 12 -34 2 -34 -8 0 -32 43 -32 55 0 16 22 1 30 -21z m233 8 c5 -8 7
-16 4 -19 -7 -6 -47 16 -47 26 0 13 34 8 43 -7z m-313 -38 c0 -28 -8 -30 -36
-9 -12 9 -14 14 -6 15 7 0 10 5 7 10 -3 6 -3 15 0 20 11 17 35 -9 35 -36z
m356 31 c17 -16 14 -18 -10 -9 -9 3 -16 10 -16 15 0 13 9 11 26 -6z m-2046
-30 c-7 -8 -20 -14 -29 -14 -13 1 -13 2 2 6 9 2 15 9 12 14 -4 5 1 9 11 9 13
0 14 -3 4 -15z m38 -36 c-20 -13 -28 -11 -22 5 3 8 12 12 21 9 12 -5 12 -7 1
-14z m-125 -7 c9 -2 17 2 17 8 0 22 23 4 26 -21 1 -13 0 -18 -3 -11 -4 10 -12
8 -31 -10 -15 -13 -21 -16 -15 -8 10 13 8 18 -8 28 -11 7 -25 9 -32 5 -7 -4
-6 0 2 11 8 9 17 13 20 9 3 -4 14 -9 24 -11z m487 8 c0 -5 -5 -10 -11 -10 -5
0 -7 5 -4 10 3 6 8 10 11 10 2 0 4 -4 4 -10z m1420 4 c0 -8 -19 -13 -24 -6 -3
5 1 9 9 9 8 0 15 -2 15 -3z m115 -14 c10 -11 15 -23 10 -28 -4 -4 -10 -1 -12
6 -3 7 -11 19 -20 27 -8 8 -10 15 -5 15 5 0 17 -9 27 -20z m397 8 c-9 -9 -15
-9 -24 0 -9 9 -7 12 12 12 19 0 21 -3 12 -12z m-2092 -18 c-20 -13 -43 -13
-35 0 3 6 16 10 28 10 18 0 19 -2 7 -10z m77 4 c-3 -3 -12 -4 -19 -1 -8 3 -5
6 6 6 11 1 17 -2 13 -5z m1461 -3 c11 -7 10 -9 -3 -15 -10 -3 -13 -11 -9 -18
4 -7 3 -10 -1 -5 -10 9 -15 47 -6 47 3 0 12 -4 19 -9z m-1195 -31 c19 -22 22
-35 7 -25 -6 3 -7 -1 -4 -9 3 -9 1 -16 -5 -16 -6 0 -12 6 -13 13 0 6 -2 17 -2
22 -1 6 -5 16 -9 23 -13 20 7 14 26 -8z m1457 10 c0 -5 -6 -9 -12 -7 -8 1 -12
-7 -11 -21 2 -13 -1 -21 -7 -17 -6 3 -7 -1 -4 -9 3 -9 10 -13 15 -10 5 3 6 -2
3 -10 -5 -13 -9 -12 -26 3 -16 16 -18 23 -8 40 6 12 8 26 5 31 -3 6 5 10 19
10 14 0 26 -4 26 -10z m-1940 -16 c0 -8 -5 -12 -10 -9 -6 4 -8 11 -5 16 9 14
15 11 15 -7z m373 -56 c11 -15 28 -30 39 -34 11 -3 39 -19 63 -35 24 -16 47
-29 51 -29 5 0 3 4 -5 9 -10 7 -11 12 -1 27 9 16 11 16 6 2 -3 -10 2 -21 10
-26 9 -5 17 -13 17 -18 1 -5 5 -8 9 -7 5 2 8 -2 8 -8 0 -8 5 -7 16 1 13 11 16
10 21 -8 3 -12 9 -20 13 -17 4 3 14 -3 21 -12 12 -14 12 -16 -1 -8 -13 8 -13
7 -1 -8 7 -9 20 -17 29 -17 8 0 12 -3 9 -7 -4 -3 1 -15 10 -25 9 -10 18 -32
19 -49 2 -26 -1 -29 -19 -24 -22 6 -22 6 -2 -11 16 -14 17 -16 3 -11 -10 4
-18 2 -18 -4 0 -6 -4 -8 -10 -4 -10 6 -2 36 14 47 7 5 4 8 -6 8 -9 0 -24 7
-32 16 -9 8 -16 11 -16 5 0 -6 -5 -11 -12 -11 -6 0 -9 3 -5 6 10 10 -30 47
-43 39 -6 -4 -18 -1 -26 6 -12 10 -13 9 -8 -5 3 -9 1 -16 -5 -16 -11 0 -15 14
-11 35 1 6 -4 4 -11 -2 -10 -10 -15 -7 -25 17 -8 18 -26 35 -49 44 -20 9 -34
19 -31 24 3 5 -3 18 -14 29 -10 12 -16 24 -13 27 4 3 -1 6 -10 6 -11 0 -14 5
-10 17 4 11 3 14 -6 9 -8 -5 -14 -1 -18 13 -3 12 -9 21 -13 21 -5 0 -1 15 8
32 l16 33 10 -25 c6 -14 19 -37 29 -52z m-313 52 c0 -5 -7 -10 -16 -10 -8 0
-12 5 -9 10 3 6 10 10 16 10 5 0 9 -4 9 -10z m2198 -15 c0 -14 -4 -25 -8 -25
-11 0 -18 22 -12 38 7 21 20 13 20 -13z m122 15 c0 -5 -8 -10 -17 -10 -15 0
-16 2 -3 10 19 12 20 12 20 0z m-2305 -20 c-3 -5 -14 -10 -23 -10 -15 0 -15 2
-2 10 20 13 33 13 25 0z m-75 -10 c0 -5 -5 -10 -11 -10 -5 0 -7 5 -4 10 3 6 8
10 11 10 2 0 4 -4 4 -10z m451 -4 c-7 -8 -21 -12 -34 -8 -22 6 -22 6 3 13 39
11 43 10 31 -5z m1689 -6 c0 -13 -5 -18 -14 -14 -8 3 -12 12 -9 20 8 21 23 17
23 -6z m-282 -10 c-7 -10 -14 -17 -17 -15 -4 4 18 35 25 35 2 0 -1 -9 -8 -20z
m114 -16 c-8 -14 -9 -13 -9 10 0 18 3 24 9 18 7 -7 7 -16 0 -28z m-2152 -9 c0
-5 -5 -3 -10 5 -5 8 -10 20 -10 25 0 6 5 3 10 -5 5 -8 10 -19 10 -25z m320 19
c0 -7 -4 -16 -10 -19 -5 -3 -10 -4 -10 -1 0 2 -2 11 -5 19 -4 8 0 14 10 14 8
0 15 -6 15 -13z m64 1 c-4 -8 -10 -12 -15 -9 -11 6 -2 24 11 24 5 0 7 -7 4
-15z m266 6 c0 -12 -20 -25 -27 -18 -7 7 6 27 18 27 5 0 9 -4 9 -9z m1385 -35
c13 -6 16 -10 7 -13 -7 -3 -19 0 -27 7 -8 6 -18 9 -24 6 -5 -4 -7 3 -4 15 5
19 8 20 17 7 6 -8 20 -18 31 -22z m-2065 14 c0 -5 -5 -10 -11 -10 -5 0 -7 5
-4 10 3 6 8 10 11 10 2 0 4 -4 4 -10z m80 -10 c0 -5 -4 -10 -10 -10 -5 0 -10
5 -10 10 0 6 5 10 10 10 6 0 10 -4 10 -10z m-113 -22 c-3 -8 -6 -5 -6 6 -1 11
2 17 5 13 3 -3 4 -12 1 -19z m243 7 c0 -12 -19 -12 -23 0 -4 9 -1 12 9 8 7 -3
14 -7 14 -8z m285 4 c-4 -6 -13 -8 -21 -5 -8 3 -14 -1 -14 -11 0 -9 -3 -14 -6
-10 -12 12 6 37 26 37 13 0 18 -4 15 -11z m-331 -11 c-4 -7 -11 -28 -15 -48
l-7 -35 -1 42 c-1 36 5 46 27 52 2 1 0 -4 -4 -11z m1967 0 c1 -7 1 -17 0 -21
-1 -4 7 -3 18 3 28 14 34 13 28 -9 -3 -13 0 -18 8 -15 15 6 28 -23 15 -31 -6
-4 -10 -10 -10 -16 0 -5 9 -4 19 3 10 6 17 18 14 25 -4 9 4 13 27 13 25 0 31
-3 26 -16 -3 -9 -6 -20 -6 -25 0 -6 -5 -7 -10 -4 -6 4 -8 11 -5 16 4 5 1 9 -4
9 -6 0 -11 -4 -11 -8 0 -5 -12 -14 -26 -20 -14 -7 -22 -17 -19 -22 3 -6 -3
-10 -15 -10 -13 0 -19 4 -14 11 5 8 1 8 -14 0 -26 -14 -62 -14 -62 0 0 5 5 7
11 3 6 -3 21 -1 34 6 25 13 24 31 -3 63 -8 9 -12 20 -9 24 4 3 2 12 -4 20 -9
9 -8 13 0 13 6 0 12 -6 12 -12z m-1781 -38 c0 -5 -7 -7 -15 -4 -8 4 -15 8 -15
10 0 2 7 4 15 4 8 0 15 -4 15 -10z m2070 -15 c0 -8 -4 -15 -10 -15 -5 0 -10 7
-10 15 0 8 5 15 10 15 6 0 10 -7 10 -15z m-2393 -32 c-3 -10 -5 -4 -5 12 0 17
2 24 5 18 2 -7 2 -21 0 -30z m94 11 c22 -25 22 -26 3 -16 -12 6 -24 18 -28 27
-8 21 -3 19 25 -11z m274 16 c8 -13 -5 -13 -25 0 -13 8 -13 10 2 10 9 0 20 -4
23 -10z m-91 -25 c-4 -8 -10 -15 -14 -15 -5 0 -15 -3 -24 -6 -25 -9 -19 12 7
24 31 15 37 14 31 -3z m246 -17 c0 -5 -4 -8 -10 -8 -5 0 -10 10 -10 23 0 18 2
19 10 7 5 -8 10 -18 10 -22z m475 22 c3 -5 1 -10 -4 -10 -6 0 -11 5 -11 10 0
6 2 10 4 10 3 0 8 -4 11 -10z m-505 -8 c0 -13 -12 -22 -22 -16 -10 6 -1 24 13
24 5 0 9 -4 9 -8z m1615 -2 c3 -5 -1 -10 -10 -10 -9 0 -13 5 -10 10 3 6 8 10
10 10 2 0 7 -4 10 -10z m-1798 -45 c2 -20 -2 -35 -8 -35 -5 0 -8 4 -5 9 9 13
-21 34 -36 25 -7 -4 -10 -4 -6 1 4 4 18 14 30 21 13 6 23 12 23 13 0 1 1 -15
2 -34z m278 25 c-3 -5 -11 -10 -16 -10 -6 0 -7 5 -4 10 3 6 11 10 16 10 6 0 7
-4 4 -10z m1654 -9 c12 -11 18 -22 12 -25 -5 -4 -12 -2 -16 4 -3 5 -11 10 -17
10 -7 0 -6 -5 2 -14 9 -12 8 -15 -9 -13 -15 1 -20 6 -15 17 3 8 7 21 7 28 1
17 10 15 36 -7z m110 3 c6 4 11 3 11 -2 0 -6 -7 -12 -15 -16 -8 -3 -15 -4 -15
-2 0 3 -3 13 -6 23 -4 14 -4 15 4 4 5 -7 15 -10 21 -7z m-1454 -14 c-3 -4 0
-10 5 -12 7 -2 5 -11 -4 -23 -15 -19 -15 -18 -16 18 0 23 4 36 10 32 6 -4 8
-10 5 -15z m-535 0 c0 -5 -2 -10 -4 -10 -3 0 -8 5 -11 10 -3 6 -1 10 4 10 6 0
11 -4 11 -10z m187 4 c-3 -3 -12 -4 -19 -1 -8 3 -5 6 6 6 11 1 17 -2 13 -5z
m1534 -34 c38 0 24 -15 -43 -48 -5 -2 -8 4 -8 13 0 9 4 14 9 10 16 -9 20 9 5
22 -10 10 -15 10 -23 -4 -5 -10 -13 -14 -17 -10 -4 4 2 14 14 23 12 8 20 21
17 27 -3 7 2 2 11 -10 9 -13 25 -23 35 -23z m-1496 3 c6 -1 19 -5 29 -9 13 -5
17 -4 12 4 -5 8 -2 10 8 6 9 -3 16 -10 16 -16 0 -5 -4 -6 -10 -3 -14 9 -12 -1
5 -35 9 -17 12 -30 7 -30 -5 0 -15 11 -22 25 -7 14 -22 25 -33 25 -15 0 -17
-3 -8 -13 11 -14 5 -27 -12 -27 -5 0 -7 11 -5 25 3 14 1 25 -3 25 -8 0 -13
-15 -10 -32 0 -4 -6 -5 -14 -2 -19 8 -19 -10 0 -26 8 -7 15 -16 15 -21 0 -12
-39 22 -52 45 -8 15 -7 18 5 13 9 -3 25 5 38 19 l23 25 -24 6 c-22 6 -22 7 -4
13 11 4 21 3 24 -4 3 -6 10 -12 15 -13z m-171 4 c-5 -14 25 -46 35 -37 3 3 8
-6 9 -19 l4 -24 -30 24 c-37 29 -47 50 -30 61 17 10 18 10 12 -5z m1714 -16
c2 -15 0 -21 -7 -16 -6 3 -8 11 -5 17 4 6 0 15 -7 20 -12 8 -11 9 1 5 8 -2 17
-14 18 -26z m-1678 9 c0 -5 -2 -10 -4 -10 -3 0 -8 5 -11 10 -3 6 -1 10 4 10 6
0 11 -4 11 -10z m1910 -10 c0 -5 -4 -10 -9 -10 -6 0 -13 5 -16 10 -3 6 1 10 9
10 9 0 16 -4 16 -10z m-1661 -17 c12 3 30 -3 45 -14 13 -10 26 -16 29 -13 3 3
10 -4 17 -15 6 -12 7 -21 1 -21 -5 0 -7 -9 -4 -20 5 -19 6 -20 20 -3 13 17 14
16 7 -6 -5 -19 -3 -23 10 -18 9 4 24 10 33 14 12 5 15 2 10 -10 -3 -9 -3 -16
1 -15 11 2 46 -15 54 -26 4 -6 9 -4 14 7 3 9 11 17 17 17 6 0 7 -3 4 -7 -4 -3
1 -12 11 -19 16 -12 15 -13 -7 -14 -18 0 -21 -3 -12 -13 6 -8 8 -17 4 -20 -3
-4 7 -18 23 -32 23 -20 25 -25 11 -25 -25 0 -85 32 -69 37 19 7 14 29 -10 47
-13 9 -17 14 -10 11 21 -11 13 4 -9 16 -15 8 -19 8 -15 0 4 -6 3 -11 -3 -11
-6 0 -8 -7 -5 -15 4 -9 1 -15 -7 -15 -8 0 -25 -3 -39 -5 -24 -5 -24 -5 -2 4
12 6 22 18 22 28 0 14 -2 15 -9 4 -5 -8 -14 -10 -21 -6 -7 4 -15 3 -19 -3 -4
-7 -12 -3 -20 11 -13 20 -13 21 2 8 10 -8 17 -9 17 -3 0 6 -8 16 -17 21 -11 6
-13 11 -5 11 7 0 10 5 7 10 -4 6 -11 8 -16 5 -5 -4 -18 -3 -30 0 -16 5 -18 10
-8 21 6 7 16 11 22 7 6 -3 7 -1 3 6 -4 6 -12 9 -17 6 -5 -4 -9 -2 -9 4 0 5 5
13 11 17 13 8 -8 24 -31 23 -10 0 -11 -2 -2 -6 6 -2 12 -12 12 -21 -1 -14 -4
-13 -19 6 -11 12 -24 22 -30 22 -12 0 -15 13 -4 23 4 4 10 2 14 -4 4 -7 16 -9
28 -6z m71 -17 c0 -5 -7 -3 -15 4 -8 7 -12 17 -9 22 7 10 24 -9 24 -26z m1430
24 c0 -5 -2 -10 -4 -10 -3 0 -8 5 -11 10 -3 6 -1 10 4 10 6 0 11 -4 11 -10z
m-205 -20 c-3 -5 -12 -10 -18 -10 -7 0 -6 4 3 10 19 12 23 12 15 0z m109 -1
c-3 -6 -1 -14 5 -18 7 -5 -6 -22 -36 -47 -60 -50 -85 -65 -59 -36 17 19 17 22
3 22 -10 0 -17 5 -17 10 0 7 6 7 19 1 14 -8 23 -5 42 17 13 15 25 32 25 37 1
6 2 13 3 18 0 4 6 7 12 7 5 0 7 -5 3 -11z m330 -13 c-3 -9 -10 -16 -15 -16 -6
0 -5 9 1 21 13 24 24 20 14 -5z m-1154 3 c0 -5 -5 -7 -11 -4 -6 4 -17 -1 -24
-11 -15 -20 -19 -16 -9 10 7 18 44 22 44 5z m986 -4 c-8 -8 -16 -20 -19 -27
-2 -7 -8 -10 -12 -6 -4 4 -3 14 3 21 7 8 10 16 7 18 -2 3 5 5 16 6 17 2 17 0
5 -12z m99 5 c-3 -5 -10 -10 -16 -10 -5 0 -9 5 -9 10 0 6 7 10 16 10 8 0 12
-4 9 -10z m-1965 -56 c0 -4 -11 3 -25 16 -13 12 -22 27 -19 32 6 9 44 -33 44
-48z m630 39 c0 -7 -4 -13 -9 -13 -5 0 -11 6 -14 13 -3 8 1 14 9 14 8 0 14 -6
14 -14z m177 -5 c-3 -8 -6 -5 -6 6 -1 11 2 17 5 13 3 -3 4 -12 1 -19z m-377 2
c0 -5 -5 -10 -11 -10 -5 0 -7 5 -4 10 3 6 8 10 11 10 2 0 4 -4 4 -10z m143 4
c-7 -3 -9 -12 -6 -20 4 -10 0 -12 -11 -8 -13 5 -14 9 -5 20 6 8 17 14 23 13 7
0 7 -2 -1 -5z m74 -16 c-3 -8 -6 -5 -6 6 -1 11 2 17 5 13 3 -3 4 -12 1 -19z
m928 12 c3 -5 2 -10 -4 -10 -5 0 -13 5 -16 10 -3 6 -2 10 4 10 5 0 13 -4 16
-10z m68 -4 c6 -14 0 -26 -13 -26 -3 0 -6 9 -6 20 0 23 11 27 19 6z m-103 -5
c0 -12 -20 -25 -27 -18 -7 7 6 27 18 27 5 0 9 -4 9 -9z m-200 -5 c0 -3 -4 -8
-10 -11 -5 -3 -10 -1 -10 4 0 6 5 11 10 11 6 0 10 -2 10 -4z m-513 -12 c-3 -3
-12 -4 -19 -1 -8 3 -5 6 6 6 11 1 17 -2 13 -5z m-177 -14 c0 -5 6 -7 14 -4 9
3 17 -3 21 -15 3 -12 11 -21 16 -21 6 0 7 4 4 10 -4 6 1 7 11 3 12 -4 14 -8 6
-11 -10 -3 -10 -7 0 -20 10 -12 10 -16 1 -19 -7 -3 -13 -11 -13 -19 0 -9 -5
-12 -12 -8 -7 5 -9 2 -6 -8 5 -12 0 -14 -20 -10 -17 3 -21 7 -12 10 17 5 40
31 40 45 0 4 -6 5 -12 1 -7 -4 -10 -4 -6 1 13 14 -13 35 -43 35 -15 0 -31 5
-35 12 -4 7 -3 8 5 4 6 -4 14 0 17 8 7 17 24 22 24 6z m805 0 c3 -6 -1 -7 -9
-4 -18 7 -21 14 -7 14 6 0 13 -4 16 -10z m65 -20 c13 -19 16 -28 7 -25 -22 9
-62 -11 -107 -54 -24 -23 -47 -41 -51 -41 -10 0 -23 40 -15 47 3 4 6 -2 6 -11
0 -21 19 -17 34 7 8 13 7 20 -4 27 -8 5 -13 10 -10 11 3 0 13 2 23 4 13 2 17
-1 13 -11 -3 -8 -1 -14 5 -14 5 0 14 12 19 26 6 14 14 22 20 19 5 -3 15 5 22
19 6 14 12 26 14 26 1 0 12 -13 24 -30z m-97 14 c7 -8 -3 -34 -13 -34 -5 0 -8
9 -7 20 1 20 8 25 20 14z m-923 -14 c0 -5 -2 -10 -4 -10 -3 0 -8 5 -11 10 -3
6 -1 10 4 10 6 0 11 -4 11 -10z m275 1 c3 -5 2 -12 -3 -15 -5 -3 -9 1 -9 9 0
17 3 19 12 6z m600 0 c-11 -5 -24 -6 -29 -3 -5 3 -6 0 -2 -6 4 -7 14 -12 22
-12 21 0 17 -13 -13 -34 -18 -13 -24 -15 -21 -5 3 8 1 22 -4 33 -12 22 4 36
42 35 23 0 23 -1 5 -8z m-70 -21 c-3 -5 -14 -10 -23 -10 -15 0 -15 2 -2 10 20
13 33 13 25 0z m-505 -25 c-7 -8 -18 -15 -24 -15 -6 0 -2 7 8 15 25 19 32 19
16 0z m-454 -11 c-3 -9 -6 -18 -6 -20 0 -2 -4 -4 -9 -4 -7 0 -8 17 -2 38 1 1
6 2 12 2 6 0 8 -7 5 -16z m1042 -12 c6 -18 -15 -14 -22 4 -4 10 -1 14 6 12 6
-2 14 -10 16 -16z m-555 -17 c4 -6 11 -4 17 5 5 8 10 10 10 4 0 -6 -7 -17 -15
-24 -11 -9 -15 -9 -15 -1 0 7 -5 9 -10 6 -6 -4 -8 -11 -5 -16 4 -5 -1 -9 -10
-9 -9 0 -14 4 -11 9 3 5 -1 11 -9 15 -8 3 -15 10 -15 15 0 13 53 9 63 -4z
m-321 -7 c-9 -9 -15 -9 -24 0 -9 9 -7 12 12 12 19 0 21 -3 12 -12z m739 -21
c-10 -9 -11 -8 -5 6 3 10 9 15 12 12 3 -3 0 -11 -7 -18z m-710 -37 c43 -33 14
-31 -40 3 -28 18 -49 36 -45 40 7 7 42 -11 85 -43z m-991 30 c0 -5 -2 -10 -4
-10 -3 0 -8 5 -11 10 -3 6 -1 10 4 10 6 0 11 -4 11 -10z m880 2 c0 -4 -9 -8
-20 -9 -11 -1 -18 2 -15 8 7 11 35 12 35 1z m310 -2 c0 -5 -5 -10 -11 -10 -5
0 -7 5 -4 10 3 6 8 10 11 10 2 0 4 -4 4 -10z m-1240 -10 c0 -5 -4 -10 -10 -10
-5 0 -10 5 -10 10 0 6 5 10 10 10 6 0 10 -4 10 -10z m1190 0 c0 -5 -7 -10 -16
-10 -8 0 -12 5 -9 10 3 6 10 10 16 10 5 0 9 -4 9 -10z m-1220 -4 c0 -2 -7 -7
-16 -10 -8 -3 -12 -2 -9 4 6 10 25 14 25 6z m1370 -6 c0 -5 -2 -10 -4 -10 -3
0 -8 5 -11 10 -3 6 -1 10 4 10 6 0 11 -4 11 -10z m572 -12 c-7 -7 -12 -8 -12
-2 0 14 12 26 19 19 2 -3 -1 -11 -7 -17z m-666 3 c-8 -12 18 -21 43 -14 12 3
21 1 21 -5 0 -13 -118 -20 -131 -7 -6 5 -9 5 -9 -1 0 -6 -13 -11 -30 -12 -16
0 -30 3 -30 8 0 4 11 7 24 6 15 -2 27 3 31 13 5 13 7 14 16 1 6 -10 11 -12 17
-4 12 18 58 32 48 15z m-1071 -12 c11 -17 -1 -21 -15 -4 -8 9 -8 15 -2 15 6 0
14 -5 17 -11z m115 -29 c0 -5 -2 -10 -4 -10 -3 0 -8 5 -11 10 -3 6 -1 10 4 10
6 0 11 -4 11 -10z m1120 -4 c0 -3 -4 -8 -10 -11 -5 -3 -10 -1 -10 4 0 6 5 11
10 11 6 0 10 -2 10 -4z m70 0 c0 -3 -4 -8 -10 -11 -5 -3 -10 -1 -10 4 0 6 5
11 10 11 6 0 10 -2 10 -4z m-1114 -20 c11 4 16 4 12 -1 -11 -12 -78 -15 -78
-4 0 6 5 7 10 4 6 -3 10 -1 10 6 0 9 3 9 14 0 7 -6 22 -8 32 -5z m29 -22 c-9
-9 -19 -13 -23 -10 -3 4 0 11 8 16 24 15 33 11 15 -6z m955 1 c0 -8 -4 -15
-10 -15 -5 0 -7 7 -4 15 4 8 8 15 10 15 2 0 4 -7 4 -15z m607 -17 c-3 -8 -6
-5 -6 6 -1 11 2 17 5 13 3 -3 4 -12 1 -19z m153 12 c0 -5 -5 -10 -11 -10 -5 0
-7 5 -4 10 3 6 8 10 11 10 2 0 4 -4 4 -10z m-1640 -15 c7 -9 8 -15 2 -15 -5 0
-12 7 -16 15 -3 8 -4 15 -2 15 2 0 9 -7 16 -15z m1460 1 c0 -3 -4 -8 -10 -11
-5 -3 -10 -1 -10 4 0 6 5 11 10 11 6 0 10 -2 10 -4z m150 -6 c0 -5 -4 -10 -10
-10 -5 0 -10 5 -10 10 0 6 5 10 10 10 6 0 10 -4 10 -10z m-1535 -10 c3 -5 2
-10 -4 -10 -5 0 -13 5 -16 10 -3 6 -2 10 4 10 5 0 13 -4 16 -10z m155 0 c0 -5
-7 -7 -15 -4 -8 4 -15 8 -15 10 0 2 7 4 15 4 8 0 15 -4 15 -10z m1116 -8 c-10
-2 -22 0 -28 6 -6 6 0 7 19 4 21 -5 23 -7 9 -10z m77 11 c-7 -2 -19 -2 -25 0
-7 3 -2 5 12 5 14 0 19 -2 13 -5z m87 -8 c0 -8 -4 -15 -10 -15 -5 0 -7 7 -4
15 4 8 8 15 10 15 2 0 4 -7 4 -15z m-1370 -5 c0 -5 8 -6 18 -3 15 6 15 5 -1
-12 -16 -15 -20 -16 -28 -4 -12 19 -11 29 1 29 6 0 10 -4 10 -10z m130 6 c0
-11 -19 -15 -25 -6 -3 5 1 10 9 10 9 0 16 -2 16 -4z m1200 -6 c0 -5 -5 -10
-11 -10 -5 0 -7 5 -4 10 3 6 8 10 11 10 2 0 4 -4 4 -10z m76 -17 c-10 -10 -19
5 -10 18 6 11 8 11 12 0 2 -7 1 -15 -2 -18z m-1186 7 c0 -5 -5 -10 -11 -10 -5
0 -7 5 -4 10 3 6 8 10 11 10 2 0 4 -4 4 -10z m860 0 c0 -5 -7 -10 -16 -10 -8
0 -12 5 -9 10 3 6 10 10 16 10 5 0 9 -4 9 -10z m76 -17 c-10 -10 -19 5 -10 18
6 11 8 11 12 0 2 -7 1 -15 -2 -18z m-1181 7 c3 -5 1 -10 -4 -10 -6 0 -11 5
-11 10 0 6 2 10 4 10 3 0 8 -4 11 -10z m188 -3 c4 3 7 -3 7 -15 0 -12 -4 -22
-10 -22 -5 0 -10 6 -10 13 0 8 -3 7 -10 -3 -12 -20 -21 -9 -13 18 4 16 9 20
18 12 6 -5 15 -7 18 -3z m1042 -6 c-8 -14 -35 -14 -35 0 0 6 7 9 15 5 8 -3 15
0 15 6 0 6 3 9 6 5 3 -3 3 -10 -1 -16z m95 -7 c0 -22 -16 -17 -17 6 -1 11 2
18 8 15 5 -4 9 -13 9 -21z m-1495 6 c3 -5 1 -10 -4 -10 -6 0 -11 5 -11 10 0 6
2 10 4 10 3 0 8 -4 11 -10z m145 0 c0 -5 -5 -10 -11 -10 -5 0 -7 5 -4 10 3 6
8 10 11 10 2 0 4 -4 4 -10z m170 0 c0 -5 -4 -10 -10 -10 -5 0 -10 5 -10 10 0
6 5 10 10 10 6 0 10 -4 10 -10z m147 -12 c-3 -8 -6 -5 -6 6 -1 11 2 17 5 13 3
-3 4 -12 1 -19z m773 12 c0 -5 -5 -10 -11 -10 -5 0 -7 5 -4 10 3 6 8 10 11 10
2 0 4 -4 4 -10z m85 0 c3 -5 -1 -10 -9 -10 -9 0 -16 5 -16 10 0 6 4 10 9 10 6
0 13 -4 16 -10z m-875 -4 c0 -3 -4 -8 -10 -11 -5 -3 -10 -1 -10 4 0 6 5 11 10
11 6 0 10 -2 10 -4z m280 -6 c0 -5 -4 -10 -10 -10 -5 0 -10 5 -10 10 0 6 5 10
10 10 6 0 10 -4 10 -10z m415 0 c3 -5 1 -10 -4 -10 -6 0 -11 5 -11 10 0 6 2
10 4 10 3 0 8 -4 11 -10z m295 0 c0 -5 -4 -10 -10 -10 -5 0 -10 5 -10 10 0 6
5 10 10 10 6 0 10 -4 10 -10z m-843 -22 c-3 -8 -6 -5 -6 6 -1 11 2 17 5 13 3
-3 4 -12 1 -19z m613 -4 c0 -8 -4 -14 -10 -14 -5 0 -10 9 -10 21 0 11 5 17 10
14 6 -3 10 -13 10 -21z m-559 -7 c-10 -9 -11 -8 -5 6 3 10 9 15 12 12 3 -3 0
-11 -7 -18z m249 14 c0 -6 -4 -13 -10 -16 -5 -3 -10 1 -10 9 0 9 5 16 10 16 6
0 10 -4 10 -9z m60 -1 c0 -5 -4 -10 -10 -10 -5 0 -10 5 -10 10 0 6 5 10 10 10
6 0 10 -4 10 -10z m351 -4 c10 6 13 -9 3 -19 -9 -9 -33 16 -26 28 3 5 7 4 10
-3 2 -7 8 -10 13 -6z m39 4 c0 -5 -4 -10 -10 -10 -5 0 -10 5 -10 10 0 6 5 10
10 10 6 0 10 -4 10 -10z m-792 -8 c13 11 14 11 10 -2 -2 -8 -11 -15 -19 -15
-8 0 -20 -4 -27 -9 -12 -7 -12 -4 -1 15 8 15 14 19 17 11 3 -10 7 -10 20 0z
m192 -2 c0 -5 -5 -10 -11 -10 -5 0 -7 5 -4 10 3 6 8 10 11 10 2 0 4 -4 4 -10z
m30 0 c0 -5 -4 -10 -10 -10 -5 0 -10 5 -10 10 0 6 5 10 10 10 6 0 10 -4 10
-10z m40 1 c0 -5 -7 -12 -16 -15 -14 -5 -15 -4 -4 9 14 17 20 19 20 6z m249
-11 c-9 -6 -9 -12 4 -25 31 -30 21 -34 -13 -5 -12 11 -27 17 -31 14 -5 -3 -9
2 -9 10 0 19 16 21 23 4 3 -9 7 -7 12 4 4 10 12 15 17 12 6 -4 5 -9 -3 -14z
m66 10 c-3 -5 -11 -10 -16 -10 -6 0 -7 5 -4 10 3 6 11 10 16 10 6 0 7 -4 4
-10z m105 0 c0 -5 -4 -10 -10 -10 -5 0 -10 5 -10 10 0 6 5 10 10 10 6 0 10 -4
10 -10z m-770 -10 c0 -5 -2 -10 -4 -10 -3 0 -8 5 -11 10 -3 6 -1 10 4 10 6 0
11 -4 11 -10z m-130 -9 c0 -6 -4 -12 -8 -15 -5 -3 -9 1 -9 9 0 8 4 15 9 15 4
0 8 -4 8 -9z m582 -8 c-6 -3 -10 -9 -6 -14 3 -5 0 -9 -5 -9 -6 0 -11 4 -11 8
0 12 23 32 29 25 3 -3 0 -8 -7 -10z m248 7 c0 -5 -2 -10 -4 -10 -3 0 -8 5 -11
10 -3 6 -1 10 4 10 6 0 11 -4 11 -10z m-60 -10 c0 -5 -4 -10 -10 -10 -5 0 -10
5 -10 10 0 6 5 10 10 10 6 0 10 -4 10 -10z m30 6 c0 -3 -4 -8 -10 -11 -5 -3
-10 -1 -10 4 0 6 5 11 10 11 6 0 10 -2 10 -4z m200 -6 c0 -5 -5 -10 -11 -10
-5 0 -7 5 -4 10 3 6 8 10 11 10 2 0 4 -4 4 -10z m80 -5 c0 -12 -19 -12 -23 0
-4 9 -1 12 9 8 7 -3 14 -7 14 -8z m-740 1 c0 -3 -4 -8 -10 -11 -5 -3 -10 -1
-10 4 0 6 5 11 10 11 6 0 10 -2 10 -4z m30 -16 c0 -5 -4 -10 -10 -10 -5 0 -10
5 -10 10 0 6 5 10 10 10 6 0 10 -4 10 -10z m280 0 c0 -5 -4 -10 -10 -10 -5 0
-10 5 -10 10 0 6 5 10 10 10 6 0 10 -4 10 -10z m270 -5 c-7 -9 -15 -13 -17
-11 -7 7 7 26 19 26 6 0 6 -6 -2 -15z m-520 -5 c0 -5 -4 -10 -10 -10 -5 0 -10
5 -10 10 0 6 5 10 10 10 6 0 10 -4 10 -10z m30 0 c0 -5 -4 -10 -10 -10 -5 0
-10 5 -10 10 0 6 5 10 10 10 6 0 10 -4 10 -10z m260 -14 c0 -3 -4 -8 -10 -11
-5 -3 -10 -1 -10 4 0 6 5 11 10 11 6 0 10 -2 10 -4z m-150 -28 c0 -18 -2 -20
-9 -8 -6 8 -7 18 -5 22 9 14 14 9 14 -14z m-170 8 c0 -3 -4 -8 -10 -11 -5 -3
-10 -1 -10 4 0 6 5 11 10 11 6 0 10 -2 10 -4z m390 -6 c8 -5 11 -10 5 -10 -5
0 -17 5 -25 10 -8 5 -10 10 -5 10 6 0 17 -5 25 -10z m-315 -58 c-3 -3 -11 0
-18 7 -9 10 -8 11 6 5 10 -3 15 -9 12 -12z"/>
<path d="M1128 2503 c7 -3 16 -2 19 1 4 3 -2 6 -13 5 -11 0 -14 -3 -6 -6z"/>
<path d="M1495 2480 c4 -6 11 -8 16 -5 14 9 11 15 -7 15 -8 0 -12 -5 -9 -10z"/>
<path d="M3848 2503 c7 -3 16 -2 19 1 4 3 -2 6 -13 5 -11 0 -14 -3 -6 -6z"/>
<path d="M3466 2482 c-6 -10 30 -9 40 1 4 4 -2 7 -14 7 -11 0 -23 -4 -26 -8z"/>
<path d="M3535 2390 c4 -6 11 -8 16 -5 14 9 11 15 -7 15 -8 0 -12 -5 -9 -10z"/>
<path d="M3565 2303 c-10 -24 -12 -63 -4 -57 9 5 22 64 16 70 -2 3 -8 -3 -12
-13z"/>
<path d="M2030 2050 c0 -5 7 -10 16 -10 8 0 12 5 9 10 -3 6 -10 10 -16 10 -5
0 -9 -4 -9 -10z"/>
<path d="M3510 2095 c0 -8 2 -15 4 -15 2 0 6 7 10 15 3 8 1 15 -4 15 -6 0 -10
-7 -10 -15z"/>
<path d="M1950 2000 c0 -5 5 -10 11 -10 5 0 7 5 4 10 -3 6 -8 10 -11 10 -2 0
-4 -4 -4 -10z"/>
<path d="M1698 3843 c7 -3 16 -2 19 1 4 3 -2 6 -13 5 -11 0 -14 -3 -6 -6z"/>
<path d="M1757 3834 c18 -9 30 -20 28 -24 -3 -5 0 -12 6 -16 8 -5 9 -3 4 6 -6
10 -4 12 8 7 10 -3 17 -2 17 3 0 6 8 2 18 -7 10 -10 14 -21 9 -24 -10 -7 17
-19 44 -19 11 0 17 -5 14 -10 -3 -6 -17 -8 -31 -6 -13 3 -24 0 -24 -5 0 -8 22
-13 42 -10 4 0 5 -6 2 -14 -4 -8 -10 -15 -15 -15 -5 0 -9 -4 -9 -10 0 -5 7 -7
15 -4 18 7 20 -12 3 -20 -7 -3 0 -4 17 -3 22 1 32 -4 41 -21 16 -33 23 -37 17
-10 l-5 23 20 -24 c11 -13 24 -21 31 -17 17 11 13 46 -5 46 -9 0 -14 7 -12 18
2 13 15 18 50 20 37 2 50 -1 67 -19 12 -13 21 -17 21 -11 0 17 17 15 24 -4 3
-8 2 -12 -4 -9 -6 3 -10 0 -10 -9 0 -11 7 -12 27 -7 38 10 38 24 0 41 -17 8
-31 20 -30 25 1 6 -7 11 -18 11 -10 0 -19 -5 -19 -10 0 -5 -3 -6 -6 -3 -4 4
-1 14 7 24 12 14 12 15 0 9 -9 -6 -12 -4 -9 5 3 8 10 14 17 14 6 0 15 6 20 13
9 15 70 31 117 32 43 0 101 -59 85 -88 -6 -11 -17 -22 -26 -25 -8 -4 -12 -13
-9 -22 4 -10 1 -15 -12 -13 -11 0 -31 0 -46 0 -24 -2 -28 -6 -28 -34 0 -17 -8
-41 -17 -52 -18 -21 -18 -21 5 -2 18 16 22 16 22 4 0 -9 -14 -21 -30 -28 -17
-7 -33 -17 -37 -23 -3 -6 -1 -7 5 -3 7 4 12 3 12 -3 0 -5 -3 -11 -7 -14 -5 -2
-3 -3 4 -1 17 4 48 -22 35 -30 -6 -3 -13 -2 -17 4 -3 5 -12 10 -18 10 -7 0 -6
-4 3 -10 8 -5 11 -10 5 -10 -5 0 -4 -4 4 -9 10 -7 19 -4 27 7 7 9 16 13 20 9
5 -4 3 -12 -4 -16 -9 -5 -4 -11 14 -20 24 -11 26 -10 14 3 -13 17 -4 21 24 10
13 -5 14 -9 5 -20 -9 -11 -8 -14 2 -15 8 -1 3 -5 -11 -9 l-25 -8 28 -1 c21 -1
27 3 25 17 -2 13 4 17 29 16 18 -1 31 2 28 6 -7 12 5 40 17 40 6 0 7 -7 4 -16
-3 -9 -2 -12 5 -9 5 4 7 15 4 25 -3 10 0 22 6 26 8 4 9 3 5 -4 -5 -8 -2 -10 8
-6 10 4 16 1 16 -7 0 -12 2 -12 9 0 6 9 11 10 15 3 4 -6 14 -8 24 -5 16 5 16
5 0 -8 -16 -13 -15 -15 10 -33 15 -11 21 -13 15 -6 -21 22 -15 35 6 16 16 -14
18 -23 10 -43 -11 -30 -3 -48 16 -33 8 7 19 8 26 4 8 -5 6 -10 -7 -18 -11 -6
-20 -18 -22 -26 -2 -12 0 -12 11 1 7 9 20 18 30 20 28 6 22 23 -12 33 -30 9
-44 36 -19 36 7 0 2 7 -10 16 -26 18 -31 49 -6 40 9 -3 14 -1 12 5 -2 6 -7 10
-12 9 -5 -1 -13 4 -17 12 -7 10 -9 10 -9 1 0 -7 -5 -13 -11 -13 -5 0 -8 3 -6
8 3 4 -20 7 -51 8 -48 1 -58 4 -78 29 -22 28 -23 58 -1 36 14 -14 27 -14 27 0
0 5 -4 7 -10 4 -5 -3 -10 -1 -10 4 0 6 8 11 18 12 11 0 7 4 -10 11 -31 11 -36
23 -12 32 8 3 13 2 10 -3 -3 -5 5 -11 17 -13 15 -3 24 0 24 8 0 7 -4 11 -8 8
-4 -2 -14 5 -22 16 -7 11 -17 17 -22 12 -5 -4 -5 -2 -1 5 4 7 14 9 22 6 9 -3
19 -1 23 5 10 17 101 28 101 13 0 -6 -9 -28 -20 -48 -10 -20 -17 -39 -15 -43
3 -4 20 -11 39 -14 28 -5 33 -10 29 -26 -3 -11 -9 -18 -13 -15 -4 3 -11 -2
-14 -11 -3 -8 -2 -13 3 -9 5 3 11 1 13 -4 2 -6 24 -5 58 2 51 12 53 13 25 19
-35 8 -105 73 -105 98 0 9 11 22 25 28 18 9 25 19 25 41 0 16 6 31 12 33 8 3
12 19 10 41 -2 23 1 37 8 37 7 0 6 6 -4 15 -8 8 -24 15 -36 15 -19 0 -21 -5
-20 -37 3 -53 1 -60 -10 -43 -5 8 -10 30 -10 48 0 25 -4 32 -20 32 -17 0 -18
-3 -8 -19 9 -14 9 -27 0 -52 -6 -19 -10 -23 -8 -11 5 28 -2 52 -16 52 -7 0 -6
-5 0 -13 9 -10 8 -19 -3 -34 -14 -20 -13 -22 5 -28 28 -9 25 -32 -6 -39 -19
-5 -34 1 -63 23 -21 17 -44 38 -52 47 -12 16 -12 17 5 11 16 -6 17 -5 7 7 -14
17 -6 37 12 35 27 -3 47 2 47 11 0 19 -89 11 -110 -10 -28 -28 -105 -24 -101
6 2 14 -52 16 -61 2 -8 -10 -11 -10 -15 0 -2 6 -11 12 -19 12 -9 0 -12 -4 -9
-10 3 -5 1 -10 -4 -10 -6 0 -11 5 -11 10 0 6 -9 10 -20 10 -11 0 -20 -5 -20
-12 0 -9 -3 -9 -12 0 -16 16 -25 15 -31 -2 -4 -11 -1 -13 11 -10 14 5 15 4 2
-5 -20 -14 -43 -14 -34 0 4 7 1 10 -7 7 -7 -2 -16 -15 -19 -28 -6 -24 -30 -41
-30 -20 0 6 4 8 10 5 6 -3 7 1 4 10 -5 12 -9 13 -21 4 -11 -10 -18 -8 -33 9
-19 21 -19 21 1 27 25 8 39 -3 19 -15 -8 -6 -10 -10 -5 -10 6 0 16 4 23 9 26
16 -12 28 -93 29 -80 2 -80 2 -48 -14z m61 -5 c-11 -6 -24 -6 -34 -1 -12 7 -8
9 18 10 26 1 30 -1 16 -9z m732 -19 c0 -5 -4 -10 -10 -10 -5 0 -10 5 -10 10 0
6 5 10 10 10 6 0 10 -4 10 -10z m-470 -10 c0 -5 -2 -10 -4 -10 -3 0 -8 5 -11
10 -3 6 -1 10 4 10 6 0 11 -4 11 -10z m-110 -7 c0 -5 -5 -15 -10 -23 -8 -12
-10 -11 -10 8 0 12 5 22 10 22 6 0 10 -3 10 -7z m40 -25 c0 -5 -4 -8 -10 -8
-5 0 -10 10 -10 23 0 18 2 19 10 7 5 -8 10 -18 10 -22z m100 12 c0 -5 -4 -10
-10 -10 -5 0 -10 5 -10 10 0 6 5 10 10 10 6 0 10 -4 10 -10z m-185 -70 c-3 -5
-11 -10 -16 -10 -6 0 -7 5 -4 10 3 6 11 10 16 10 6 0 7 -4 4 -10z m53 -46 c-4
-3 -12 5 -18 18 -12 22 -12 22 6 6 10 -10 15 -20 12 -24z m412 32 c0 -11 -19
-15 -25 -6 -3 5 1 10 9 10 9 0 16 -2 16 -4z m-87 -77 c10 -11 16 -24 12 -27
-3 -4 -10 0 -16 8 -8 13 -10 13 -18 0 -13 -20 -22 -9 -14 18 7 27 14 28 36 1z
m-58 1 c-3 -5 -10 -10 -16 -10 -5 0 -9 5 -9 10 0 6 7 10 16 10 8 0 12 -4 9
-10z m325 -83 c13 -5 13 -6 0 -6 -18 -1 -40 18 -40 34 0 5 6 3 13 -6 7 -9 19
-18 27 -22z m-204 -44 c-8 -8 -36 5 -36 17 0 7 6 7 21 0 11 -7 18 -14 15 -17z
m-132 4 c14 -8 23 -17 19 -20 -3 -4 0 -7 7 -7 7 0 11 -3 8 -6 -7 -7 -64 21
-73 36 -9 14 8 12 39 -3z"/>
<path d="M2246 3838 c3 -5 10 -6 15 -3 13 9 11 12 -6 12 -8 0 -12 -4 -9 -9z"/>
<path d="M2695 3840 c-3 -5 3 -10 14 -10 12 0 21 5 21 10 0 6 -6 10 -14 10 -8
0 -18 -4 -21 -10z"/>
<path d="M2958 3843 c23 -2 42 -9 42 -14 0 -6 5 -7 10 -4 24 15 6 25 -42 23
-51 -1 -51 -2 -10 -5z"/>
<path d="M2655 3820 c3 -5 8 -10 11 -10 2 0 4 5 4 10 0 6 -5 10 -11 10 -5 0
-7 -4 -4 -10z"/>
<path d="M1676 3804 c-3 -8 -1 -14 4 -14 16 0 5 -49 -15 -65 -20 -16 -20 -16
2 -5 20 9 23 7 29 -14 5 -22 8 -24 21 -11 8 9 12 21 10 28 -4 9 -6 9 -6 0 -1
-7 -5 -13 -10 -13 -6 0 -9 9 -8 21 1 14 7 19 18 16 11 -3 16 0 13 8 -3 7 -15
11 -27 8 -19 -4 -18 -2 8 20 17 14 27 29 23 33 -5 4 -8 2 -8 -5 0 -7 -5 -9
-12 -4 -21 13 -36 12 -42 -3z m34 -4 c0 -5 -5 -10 -11 -10 -5 0 -7 5 -4 10 3
6 8 10 11 10 2 0 4 -4 4 -10z"/>
<path d="M2347 3802 c3 -7 9 -10 12 -5 3 4 10 11 15 15 4 4 -1 6 -12 5 -12 -1
-18 -6 -15 -15z"/>
<path d="M1746 3784 c-5 -14 -4 -15 9 -4 17 14 19 20 6 20 -5 0 -12 -7 -15
-16z"/>
<path d="M2596 3741 c-3 -4 6 -6 19 -3 14 2 25 6 25 8 0 8 -39 4 -44 -5z"/>
<path d="M2550 3716 c0 -8 4 -17 9 -20 5 -4 7 3 4 14 -6 23 -13 26 -13 6z"/>
<path d="M1741 3682 c-1 -8 -6 -10 -13 -6 -10 5 -10 4 -1 -6 15 -16 28 -8 20
12 -4 11 -6 11 -6 0z"/>
<path d="M2920 3679 c0 -5 -5 -7 -12 -3 -7 4 -8 3 -4 -5 6 -9 11 -9 22 0 17
14 18 19 4 19 -5 0 -10 -5 -10 -11z"/>
<path d="M2035 3670 c3 -5 8 -10 11 -10 2 0 4 5 4 10 0 6 -5 10 -11 10 -5 0
-7 -4 -4 -10z"/>
<path d="M3300 3659 c0 -5 5 -7 10 -4 6 3 10 8 10 11 0 2 -4 4 -10 4 -5 0 -10
-5 -10 -11z"/>
<path d="M1740 3646 c0 -2 7 -7 16 -10 8 -3 12 -2 9 4 -6 10 -25 14 -25 6z"/>
<path d="M3181 3624 c0 -12 7 -28 17 -35 15 -12 16 -12 6 1 -7 8 -14 24 -17
35 -4 19 -5 19 -6 -1z"/>
<path d="M1710 3621 c0 -6 4 -13 10 -16 6 -3 7 1 4 9 -7 18 -14 21 -14 7z"/>
<path d="M1661 3611 c-9 -6 -6 -8 13 -8 14 0 23 3 20 8 -7 11 -15 11 -33 0z"/>
<path d="M2075 3607 c-11 -7 -23 -16 -27 -22 -5 -6 -8 -5 -8 3 0 6 -8 12 -17
12 -11 0 -14 -3 -7 -8 6 -4 14 -16 18 -27 7 -19 8 -19 21 5 10 16 14 20 15 9
0 -23 33 -49 61 -48 22 1 21 2 -5 8 -39 8 -55 34 -38 61 14 23 14 23 -13 7z"/>
<path d="M3050 3582 c0 -4 9 -13 20 -20 19 -12 20 -11 8 8 -13 20 -28 27 -28
12z"/>
<path d="M1589 3573 c-1 -5 -1 -12 0 -17 1 -4 -4 -14 -10 -22 -8 -10 -8 -14
-1 -14 12 0 32 31 32 49 0 12 -19 15 -21 4z"/>
<path d="M1651 3564 c0 -11 3 -14 6 -6 3 7 2 16 -1 19 -3 4 -6 -2 -5 -13z"/>
<path d="M1714 3561 c0 -11 5 -17 13 -14 10 4 11 9 2 19 -15 18 -15 18 -15 -5z"/>
<path d="M2410 3550 c0 -5 5 -10 11 -10 5 0 7 5 4 10 -3 6 -8 10 -11 10 -2 0
-4 -4 -4 -10z"/>
<path d="M3028 3553 c7 -3 16 -2 19 1 4 3 -2 6 -13 5 -11 0 -14 -3 -6 -6z"/>
<path d="M1620 3539 c0 -5 5 -7 10 -4 6 3 10 8 10 11 0 2 -4 4 -10 4 -5 0 -10
-5 -10 -11z"/>
<path d="M2064 3542 c3 -5 0 -13 -6 -15 -9 -4 -10 -6 -1 -6 17 -1 25 16 12 25
-7 4 -9 3 -5 -4z"/>
<path d="M3500 3535 c-14 -8 -20 -14 -14 -15 5 0 19 7 30 15 24 18 16 19 -16
0z"/>
<path d="M2975 3520 c-3 -6 1 -7 9 -4 18 7 21 14 7 14 -6 0 -13 -4 -16 -10z"/>
<path d="M1573 3495 c0 -8 4 -12 9 -9 5 3 6 10 3 15 -9 13 -12 11 -12 -6z"/>
<path d="M2060 3508 c0 -2 9 -11 20 -21 11 -9 20 -13 20 -7 0 5 -9 14 -20 20
-11 6 -20 9 -20 8z"/>
<path d="M1635 3480 c-3 -5 -2 -10 4 -10 5 0 13 5 16 10 3 6 2 10 -4 10 -5 0
-13 -4 -16 -10z"/>
<path d="M2050 3486 c0 -2 8 -10 18 -17 15 -13 16 -12 3 4 -13 16 -21 21 -21
13z"/>
<path d="M2120 3480 c0 -5 5 -10 10 -10 6 0 10 5 10 10 0 6 -4 10 -10 10 -5 0
-10 -4 -10 -10z"/>
<path d="M1566 3453 c-4 -10 1 -24 12 -35 16 -16 19 -17 19 -4 0 9 -7 16 -14
16 -8 0 -13 6 -10 13 2 6 10 11 16 9 7 -1 10 2 6 8 -9 15 -22 12 -29 -7z"/>
<path d="M2092 3444 c-13 -14 -4 -20 22 -15 5 1 13 -4 17 -11 4 -7 10 -10 13
-7 3 3 -4 15 -17 26 -19 18 -24 19 -35 7z"/>
<path d="M2795 3450 c-16 -7 -17 -9 -3 -9 9 -1 20 4 23 9 7 11 7 11 -20 0z"/>
<path d="M3647 3446 c-4 -10 -1 -13 9 -9 7 3 14 9 14 14 0 14 -17 10 -23 -5z"/>
<path d="M2160 3431 c0 -5 5 -13 10 -16 6 -3 10 -2 10 4 0 5 -4 13 -10 16 -5
3 -10 2 -10 -4z"/>
<path d="M1534 3418 c-4 -7 -3 -10 1 -5 5 4 18 -1 29 -10 21 -18 21 -18 2 5
-22 26 -23 26 -32 10z"/>
<path d="M1610 3421 c0 -6 4 -13 10 -16 6 -3 7 1 4 9 -7 18 -14 21 -14 7z"/>
<path d="M3600 3410 c0 -5 5 -10 10 -10 6 0 10 5 10 10 0 6 -4 10 -10 10 -5 0
-10 -4 -10 -10z"/>
<path d="M2066 3385 c-25 -19 -16 -19 20 0 16 8 22 15 14 15 -8 -1 -24 -7 -34
-15z"/>
<path d="M2630 3388 c0 -20 35 -32 71 -25 16 3 12 5 -13 6 -24 1 -41 7 -47 19
-10 16 -10 16 -11 0z"/>
<path d="M3570 3380 c-6 -11 -8 -20 -6 -20 3 0 10 9 16 20 6 11 8 20 6 20 -3
0 -10 -9 -16 -20z"/>
<path d="M2197 3370 c-3 -11 2 -25 12 -32 14 -11 14 -11 3 4 -9 11 -10 18 -2
23 12 8 13 25 1 25 -5 0 -11 -9 -14 -20z"/>
<path d="M2286 3369 c-15 -9 -16 -13 -5 -20 8 -5 22 -6 32 -3 9 3 17 1 17 -5
0 -6 7 -8 15 -5 8 4 14 16 14 28 -1 15 -3 16 -6 5 -2 -11 -13 -16 -29 -15 -15
0 -22 6 -19 14 5 14 5 14 -19 1z"/>
<path d="M1577 3353 c3 -7 9 -13 13 -13 4 0 10 6 13 13 3 7 -3 13 -13 13 -10
0 -16 -6 -13 -13z"/>
<path d="M2115 3360 c-3 -6 1 -7 9 -4 18 7 21 14 7 14 -6 0 -13 -4 -16 -10z"/>
<path d="M2703 3342 c-8 -5 -9 -13 -3 -22 8 -13 10 -12 10 2 0 9 10 19 23 21
19 4 19 4 2 5 -11 1 -25 -2 -32 -6z"/>
<path d="M2779 3326 c7 -8 10 -20 6 -25 -3 -7 0 -8 9 -5 18 7 11 30 -11 38
-13 5 -14 4 -4 -8z"/>
<path d="M3529 3309 c14 -5 28 -6 32 -2 4 4 -6 9 -24 10 -30 1 -31 1 -8 -8z"/>
<path d="M1596 3297 c2 -7 14 -19 27 -26 21 -13 21 -12 -2 13 -27 29 -33 32
-25 13z"/>
<path d="M2460 3279 c0 -16 6 -26 15 -26 19 0 18 7 0 31 -14 19 -15 19 -15 -5z"/>
<path d="M2504 3258 c0 -22 -2 -22 25 1 l22 19 -24 -2 c-14 0 -23 -7 -23 -18z"/>
<path d="M2557 3249 c7 -7 15 -10 18 -7 3 3 -2 9 -12 12 -14 6 -15 5 -6 -5z"/>
<path d="M2908 3253 c6 -2 18 -2 25 0 6 3 1 5 -13 5 -14 0 -19 -2 -12 -5z"/>
<path d="M2630 3240 c-9 -6 -10 -10 -3 -10 6 0 15 5 18 10 8 12 4 12 -15 0z"/>
<path d="M2808 3243 c7 -3 16 -2 19 1 4 3 -2 6 -13 5 -11 0 -14 -3 -6 -6z"/>
<path d="M3465 3220 c-3 -5 -1 -10 4 -10 6 0 11 5 11 10 0 6 -2 10 -4 10 -3 0
-8 -4 -11 -10z"/>
<path d="M2650 3206 c0 -2 7 -7 16 -10 8 -3 12 -2 9 4 -6 10 -25 14 -25 6z"/>
<path d="M3443 3185 c-7 -8 -9 -16 -4 -19 5 -3 12 1 15 10 8 22 4 25 -11 9z"/>
<path d="M2748 3178 c5 -5 16 -8 23 -6 8 3 3 7 -10 11 -17 4 -21 3 -13 -5z"/>
<path d="M3411 3177 c-1 -11 -6 -15 -13 -11 -7 5 -8 3 -3 -5 10 -16 29 2 22
21 -4 8 -6 7 -6 -5z"/>
<path d="M1660 3176 c0 -9 30 -14 35 -6 4 6 -3 10 -14 10 -12 0 -21 -2 -21 -4z"/>
<path d="M1706 3108 c3 -5 10 -6 15 -3 13 9 11 12 -6 12 -8 0 -12 -4 -9 -9z"/>
<path d="M3340 3100 c0 -17 17 -47 23 -40 2 3 -2 16 -10 30 -7 14 -13 18 -13
10z"/>
<path d="M1675 3061 c-3 -5 -2 -12 3 -15 5 -3 9 1 9 9 0 17 -3 19 -12 6z"/>
<path d="M1700 3020 c-9 -6 -10 -10 -3 -10 6 0 15 5 18 10 8 12 4 12 -15 0z"/>
<path d="M1711 2996 c-8 -9 -10 -16 -5 -15 5 1 16 0 24 -4 8 -3 22 -8 30 -10
11 -3 8 -8 -10 -15 l-25 -11 27 0 c19 -1 26 3 24 17 -2 9 -12 18 -24 20 -11 2
-22 10 -24 19 -3 14 -5 14 -17 -1z"/>
<path d="M3240 2946 c0 -2 7 -9 15 -16 13 -11 14 -10 9 4 -5 14 -24 23 -24 12z"/>
<path d="M1770 2920 c-13 -8 -13 -10 2 -10 9 0 20 5 23 10 8 13 -5 13 -25 0z"/>
<path d="M3045 2790 c-3 -6 1 -7 9 -4 18 7 21 14 7 14 -6 0 -13 -4 -16 -10z"/>
<path d="M2090 2760 c0 -14 -5 -18 -17 -13 -22 8 -15 -1 13 -15 19 -10 20 -8
16 19 -5 33 -12 39 -12 9z"/>
<path d="M3043 2752 c-9 -6 -8 -11 5 -18 13 -9 21 -8 31 4 12 12 11 13 -9 7
-15 -5 -20 -4 -16 4 8 13 6 14 -11 3z"/>
<path d="M2010 2731 c0 -6 10 -11 23 -11 21 -1 21 -1 3 -15 -20 -16 -16 -30
13 -38 14 -3 18 -1 14 9 -3 8 1 14 8 14 12 0 12 2 0 9 -7 5 -11 13 -8 18 3 5
1 10 -6 10 -7 0 -20 4 -29 8 -11 4 -18 3 -18 -4z m45 -41 c-3 -5 -11 -10 -16
-10 -6 0 -7 5 -4 10 3 6 11 10 16 10 6 0 7 -4 4 -10z"/>
<path d="M2105 2708 l-20 -21 23 12 c12 6 22 16 22 21 0 13 -2 12 -25 -12z"/>
<path d="M2668 2663 c7 -3 16 -2 19 1 4 3 -2 6 -13 5 -11 0 -14 -3 -6 -6z"/>
<path d="M3050 2664 c0 -19 45 -43 61 -33 8 5 12 9 9 10 -45 8 -55 11 -62 22
-5 8 -8 8 -8 1z"/>
<path d="M3063 2572 c-7 -4 -9 -13 -4 -21 6 -9 10 -7 14 8 3 12 4 21 4 21 -1
0 -7 -4 -14 -8z"/>
<path d="M1994 2549 c-3 -6 -1 -16 5 -22 9 -9 10 -7 5 7 -6 16 -4 18 10 13 10
-4 15 -3 11 3 -8 13 -22 13 -31 -1z"/>
<path d="M2178 2553 c7 -3 16 -2 19 1 4 3 -2 6 -13 5 -11 0 -14 -3 -6 -6z"/>
<path d="M2020 2495 c7 -8 9 -15 5 -15 -4 0 -2 -7 5 -15 11 -13 11 -18 0 -28
-10 -9 -11 -9 -6 1 4 6 2 12 -3 12 -6 0 -11 -5 -11 -11 0 -5 -6 -7 -12 -3 -7
4 -10 4 -6 -1 4 -4 3 -14 -3 -21 -6 -7 -8 -18 -4 -24 8 -13 35 -13 35 0 0 6 7
10 15 10 8 0 15 5 15 11 0 5 -4 7 -10 4 -6 -3 -7 1 -4 10 4 10 13 13 25 10 11
-4 19 -2 19 3 0 5 -10 13 -22 17 -13 3 -18 9 -11 11 8 4 6 11 -8 25 -22 22
-37 26 -19 4z"/>
<path d="M2125 2500 c-3 -6 1 -7 9 -4 18 7 21 14 7 14 -6 0 -13 -4 -16 -10z"/>
<path d="M2084 2467 c15 -20 25 -41 22 -45 -2 -4 4 -8 15 -8 17 0 16 3 -8 28
-23 24 -24 29 -12 45 12 16 12 17 -2 6 -12 -10 -18 -10 -29 0 -8 6 -2 -5 14
-26z"/>
<path d="M2998 2493 c6 -2 18 -2 25 0 6 3 1 5 -13 5 -14 0 -19 -2 -12 -5z"/>
<path d="M2998 2463 c6 -2 18 -2 25 0 6 3 1 5 -13 5 -14 0 -19 -2 -12 -5z"/>
<path d="M2740 2441 c0 -6 4 -13 10 -16 6 -3 7 1 4 9 -7 18 -14 21 -14 7z"/>
<path d="M3056 2433 c-6 -14 -5 -15 5 -6 7 7 10 15 7 18 -3 3 -9 -2 -12 -12z"/>
<path d="M2770 2416 c0 -2 8 -10 18 -17 15 -13 16 -12 3 4 -13 16 -21 21 -21
13z"/>
<path d="M2068 2383 c7 -3 16 -2 19 1 4 3 -2 6 -13 5 -11 0 -14 -3 -6 -6z"/>
<path d="M2203 2373 c9 -2 25 -2 35 0 9 3 1 5 -18 5 -19 0 -27 -2 -17 -5z"/>
<path d="M1920 2326 c0 -2 7 -7 16 -10 8 -3 12 -2 9 4 -6 10 -25 14 -25 6z"/>
<path d="M2920 2291 c0 -5 7 -11 14 -14 10 -4 13 -1 9 9 -6 15 -23 19 -23 5z"/>
<path d="M2960 2290 c0 -6 7 -10 15 -10 8 0 15 2 15 4 0 2 -7 6 -15 10 -8 3
-15 1 -15 -4z"/>
<path d="M2820 2276 c0 -9 5 -16 10 -16 6 0 10 4 10 9 0 6 -4 13 -10 16 -5 3
-10 -1 -10 -9z"/>
<path d="M2967 2263 c-12 -12 -7 -19 12 -19 15 0 17 3 9 13 -12 15 -13 15 -21
6z"/>
<path d="M2896 2251 c-4 -5 3 -7 14 -4 23 6 26 13 6 13 -8 0 -17 -4 -20 -9z"/>
<path d="M2823 2242 c-9 -6 -7 -11 6 -19 16 -10 18 -9 14 8 -3 10 -6 19 -7 19
0 0 -6 -4 -13 -8z"/>
<path d="M3110 2240 c0 -5 5 -10 11 -10 5 0 7 5 4 10 -3 6 -8 10 -11 10 -2 0
-4 -4 -4 -10z"/>
<path d="M3316 2223 c-6 -14 -5 -15 5 -6 7 7 10 15 7 18 -3 3 -9 -2 -12 -12z"/>
<path d="M2940 2220 c0 -5 7 -7 15 -4 8 4 15 8 15 10 0 2 -7 4 -15 4 -8 0 -15
-4 -15 -10z"/>
<path d="M2800 2216 c0 -2 8 -10 18 -17 15 -13 16 -12 3 4 -13 16 -21 21 -21
13z"/>
<path d="M2749 2153 c-6 -18 -16 -33 -22 -34 -29 -2 -72 -11 -77 -16 -3 -3 12
-3 33 0 21 3 40 0 44 -6 4 -6 10 -1 15 12 4 13 17 25 27 28 11 3 17 11 15 17
-6 15 37 16 49 1 5 -6 7 -4 4 5 -2 8 -10 14 -16 13 -6 -2 -11 0 -11 5 0 4 -11
7 -25 7 -19 0 -28 -7 -36 -32z"/>
<path d="M3290 2180 c-8 -5 -28 -11 -43 -15 -17 -3 -25 -10 -21 -17 5 -7 2 -9
-8 -6 -13 5 -14 3 -5 -16 6 -12 20 -23 31 -23 19 -2 19 -1 4 8 -24 13 -23 28
2 26 11 -1 20 -4 20 -8 0 -9 40 1 41 10 7 55 6 57 -21 41z"/>
<path d="M2906 2163 c-4 -9 -2 -21 4 -27 8 -8 9 -6 4 8 -6 16 -4 18 11 13 15
-6 16 -5 5 8 -16 19 -16 19 -24 -2z"/>
<path d="M3100 2153 c0 -7 -12 -19 -26 -26 -17 -9 -23 -17 -15 -21 6 -4 22 5
35 19 15 16 30 24 37 19 7 -4 9 -3 5 4 -3 5 0 13 6 15 7 3 1 5 -14 4 -16 -1
-28 -7 -28 -14z"/>
<path d="M3153 2143 c4 -3 -1 -12 -11 -20 -15 -13 -15 -13 6 -3 23 11 30 30
10 30 -6 0 -8 -3 -5 -7z"/>
<path d="M2841 2131 c-10 -7 -7 -9 12 -8 14 1 23 5 20 10 -6 9 -15 9 -32 -2z"/>
<path d="M2553 2107 c2 -36 22 -49 41 -28 21 23 21 37 0 17 -8 -9 -21 -13 -27
-9 -7 4 -5 9 6 12 15 6 15 7 -2 18 -17 11 -20 10 -18 -10z"/>
<path d="M2805 2120 c-3 -5 -3 -15 1 -22 5 -8 2 -9 -11 -4 -16 6 -16 4 -4 -11
13 -15 12 -16 -8 -11 -13 4 -26 1 -30 -4 -3 -7 -1 -8 5 -4 7 4 12 3 12 -3 0
-7 8 -7 25 1 13 6 24 14 23 17 -2 19 4 24 12 11 8 -13 10 -12 10 4 0 13 -5 16
-16 12 -12 -4 -15 -2 -10 9 6 17 0 20 -9 5z"/>
<path d="M3182 2125 c4 -4 0 -14 -10 -22 -9 -8 -11 -12 -4 -8 15 8 16 -11 1
-21 -6 -3 -9 -15 -6 -25 6 -24 -12 -36 -25 -18 -7 11 -8 9 -4 -5 5 -14 2 -17
-10 -12 -8 3 -18 6 -20 6 -3 0 -3 4 0 9 3 5 -8 11 -24 13 -35 5 -35 4 -14 -20
27 -31 124 -16 124 20 0 5 -6 6 -12 3 -7 -4 -5 0 5 8 20 16 23 62 5 73 -7 4
-10 4 -6 -1z"/>
<path d="M2484 2113 c3 -3 17 -7 32 -9 14 -1 23 0 20 3 -3 4 -18 8 -32 9 -14
2 -24 0 -20 -3z"/>
<path d="M3072 2075 c-17 -9 -19 -14 -9 -18 7 -3 19 4 25 14 7 10 11 19 10 18
-2 -1 -13 -7 -26 -14z"/>
<path d="M3212 2063 c0 -18 5 -30 13 -30 14 0 14 13 -1 40 -10 17 -11 15 -12
-10z"/>
<path d="M2996 2065 c-22 -8 -43 -12 -47 -9 -4 2 -11 -1 -15 -7 -4 -8 -3 -9 4
-5 6 4 20 -2 31 -13 17 -17 22 -18 38 -6 17 14 17 14 -5 15 -14 0 -21 4 -16
11 3 6 14 9 24 6 11 -3 21 1 24 9 3 8 4 14 3 14 -1 -1 -20 -7 -41 -15z"/>
<path d="M3315 2060 c-3 -6 1 -7 9 -4 18 7 21 14 7 14 -6 0 -13 -4 -16 -10z"/>
<path d="M2937 2024 c-11 -11 3 -24 18 -18 8 4 12 10 9 15 -6 11 -18 12 -27 3z"/>
<path d="M3252 1980 c0 -14 2 -19 5 -12 2 6 2 18 0 25 -3 6 -5 1 -5 -13z"/>
<path d="M2481 1931 c-8 -6 -9 -11 -3 -15 6 -3 14 -1 17 5 9 14 2 20 -14 10z"/>
<path d="M2761 1910 c0 -8 9 -26 20 -40 11 -14 17 -19 13 -11 -4 9 0 19 11 28
11 7 13 13 6 13 -7 0 -9 5 -6 10 3 6 -1 10 -10 10 -9 0 -13 -4 -10 -10 3 -5 2
-10 -4 -10 -5 0 -12 6 -14 13 -4 8 -6 7 -6 -3z"/>
<path d="M2875 1880 c-3 -6 1 -7 9 -4 19 7 21 -7 5 -23 -9 -9 -7 -11 8 -7 13
4 22 0 27 -11 3 -9 10 -13 16 -10 6 4 8 10 5 15 -3 4 4 10 15 13 11 3 20 13
20 23 0 13 -3 15 -11 7 -6 -6 -18 -9 -25 -6 -8 3 -14 -1 -14 -7 0 -9 -6 -8
-18 3 -21 20 -28 21 -37 7z"/>
<path d="M2842 1827 c-28 -13 -28 -23 1 -31 38 -10 77 -7 77 7 0 20 -52 35
-78 24z"/>
</g>
</svg>
