<?xml version="1.0" standalone="no"?>
<!DOCTYPE svg PUBLIC "-//W3C//DTD SVG 20010904//EN"
 "http://www.w3.org/TR/2001/REC-SVG-20010904/DTD/svg10.dtd">
<svg version="1.0" xmlns="http://www.w3.org/2000/svg"
 width="700.000000pt" height="700.000000pt" viewBox="0 0 700.000000 700.000000"
 preserveAspectRatio="xMidYMid meet">
<metadata>
Created by potrace 1.11, written by Peter Selinger 2001-2013
</metadata>
<g transform="translate(0.000000,700.000000) scale(0.100000,-0.100000)"
fill="#000000" stroke="none">
<path d="M951 6978 c-54 -27 -98 -81 -110 -136 -25 -119 31 -308 128 -430 73
-92 180 -164 311 -210 38 -14 134 -17 660 -21 563 -6 609 -7 545 -20 -243 -49
-443 -172 -618 -381 -6 -8 -33 -47 -59 -88 -72 -115 -130 -275 -143 -397 -18
-166 -11 -213 41 -274 61 -71 80 -74 426 -68 307 5 333 8 474 52 18 6 29 -10
97 -149 42 -85 75 -161 72 -168 -2 -7 -6 -35 -9 -63 -3 -27 -10 -72 -15 -100
-5 -27 -12 -70 -16 -95 -4 -25 -13 -74 -22 -110 -8 -36 -16 -72 -18 -81 -7
-33 -47 -166 -71 -234 -39 -109 -118 -251 -194 -350 -260 -337 -363 -616 -364
-980 0 -181 22 -299 104 -550 32 -99 71 -218 85 -265 25 -80 34 -111 85 -305
21 -83 71 -315 74 -350 1 -11 5 -33 9 -50 8 -40 15 -85 26 -192 20 -175 24
-260 26 -532 1 -164 6 -286 13 -302 17 -43 62 -89 108 -109 42 -19 68 -20 906
-20 818 0 865 1 904 19 48 22 97 78 112 129 7 23 11 153 12 337 1 165 3 320 5
345 1 25 6 90 10 145 8 111 9 122 31 285 36 263 118 573 206 770 11 25 26 59
33 75 74 165 114 347 120 540 5 178 -18 330 -76 508 -42 127 -107 252 -223
422 -187 274 -248 405 -320 678 -35 132 -84 375 -87 432 -2 19 19 73 59 152
34 67 67 134 72 149 8 21 15 25 33 19 145 -45 167 -48 471 -52 207 -4 311 -2
337 6 86 26 142 106 142 206 2 267 -108 525 -309 722 -135 132 -286 215 -475
263 l-114 28 615 4 c570 3 619 4 664 22 192 72 305 170 383 334 58 123 74 269
39 344 -37 77 -107 118 -197 114 -106 -4 -182 -83 -193 -200 -8 -75 -39 -132
-94 -171 -43 -29 -47 -30 -178 -33 -74 -2 -134 0 -135 5 0 4 -2 62 -3 128 -3
136 -20 184 -78 228 -45 33 -65 40 -123 42 -80 4 -150 -37 -187 -108 -18 -36
-21 -59 -22 -169 l-1 -128 -248 0 c-187 0 -267 -4 -325 -16 -86 -18 -193 -67
-256 -119 l-42 -34 -44 28 c-144 88 -303 133 -485 137 -200 5 -355 -31 -520
-120 -46 -25 -87 -41 -90 -36 -11 18 -142 98 -195 118 -91 35 -162 42 -420 42
l-245 0 0 113 c1 129 -8 167 -47 219 -38 48 -80 70 -148 73 -62 4 -112 -13
-152 -52 -49 -47 -61 -88 -64 -213 -1 -63 -3 -121 -3 -127 -1 -18 -223 -17
-271 1 -80 28 -127 96 -136 194 -10 118 -84 193 -194 198 -42 2 -69 -3 -99
-18z"/>
</g>
</svg>
